<?xml version="1.0" encoding="UTF-8"?>
<svg version="1.1" xmlns="http://www.w3.org/2000/svg" width="500" height="500">
<path d="M0 0 C165 0 330 0 500 0 C500 165 500 330 500 500 C335 500 170 500 0 500 C0 335 0 170 0 0 Z " fill="#000000" transform="translate(0,0)"/>
<path d="M0 0 C2.76901107 2.76901107 2.33173354 4.62987143 2.5 8.5 C2.72529886 13.59175426 3.41769817 18.32663044 4.46484375 23.29492188 C5.22004184 27.11225529 5.74622812 30.95287511 6.29296875 34.8046875 C7.79418454 45.30036716 9.6394078 55.66233708 12 66 C12.23686523 67.05445313 12.47373047 68.10890625 12.71777344 69.1953125 C14.26104166 75.745303 16.30523467 81.83721133 19 88 C19.31001953 88.71897461 19.62003906 89.43794922 19.93945312 90.17871094 C27.31566815 106.97486935 39.06086572 130.5626079 56.6875 138.3125 C57.74517578 138.70888672 57.74517578 138.70888672 58.82421875 139.11328125 C61 140 61 140 63.359375 141.48046875 C80.79589825 151.51420772 107.39253182 150.1876906 127 151 C127 151.66 127 152.32 127 153 C125.7625 153.03867187 125.7625 153.03867187 124.5 153.078125 C115.76036202 153.50730365 107.747975 155.02910134 99.32519531 157.36132812 C96.7505494 158.06851772 94.16897267 158.74599137 91.5859375 159.421875 C65.22206085 166.37369052 40.92044869 176.29607665 25.875 200.75 C24.90533392 202.4937461 23.94814131 204.24445711 23 206 C22.34 207.13308594 21.68 208.26617187 21 209.43359375 C16.45149407 217.37329966 13.4361427 224.85014571 11.48144531 233.84057617 C11.12262769 235.44997876 10.73750656 237.05356026 10.33886719 238.65356445 C7.891246 248.65705927 6.38813398 258.76124786 4.875 268.9375 C4.47840758 271.57041962 4.08041941 274.20312592 3.68240356 276.83583069 C3.4374755 278.45954523 3.19365341 280.08342713 2.95114136 281.70750427 C2.33768446 285.81179905 1.69630418 289.90870515 1 294 C0.34 294 -0.32 294 -1 294 C-3.9165893 285.87243781 -4.64479733 277.69173173 -5.26513672 269.14599609 C-5.67229365 263.7629024 -6.37646114 258.59519079 -7.50708008 253.31567383 C-8.208736 250.01938536 -8.74263539 246.6962968 -9.3125 243.375 C-13.67342976 219.58811038 -23.33366821 193.78363343 -43.25 178.875 C-45.15246556 177.56250669 -47.06930662 176.27060496 -49 175 C-50.33804688 174.10474609 -50.33804688 174.10474609 -51.703125 173.19140625 C-76.39647841 157.70632848 -106.74471159 154.42052133 -135 151 C-135 150.67 -135 150.34 -135 150 C-130.2781127 149.26516549 -125.6440476 148.81562286 -120.87109375 148.60546875 C-119.50296239 148.53965985 -118.13488098 148.47280612 -116.7668457 148.4050293 C-115.70634506 148.35274673 -115.70634506 148.35274673 -114.62442017 148.29940796 C-95.53743015 147.32269828 -76.74214709 145.63749016 -59 138 C-57.82050781 137.52046875 -56.64101562 137.0409375 -55.42578125 136.546875 C-37.64243471 128.62607633 -29.60714587 113.10777203 -21.83911133 96.05004883 C-20.32094864 92.72374613 -18.75490249 89.51235212 -16.88671875 86.3671875 C-15.11607085 83.20714921 -14.00188609 80.40384696 -13 76.9375 C-12.67128906 75.81214844 -12.34257812 74.68679687 -12.00390625 73.52734375 C-11.67261719 72.36332031 -11.34132813 71.19929688 -11 70 C-10.65839844 68.84628906 -10.31679687 67.69257813 -9.96484375 66.50390625 C-3.49591127 44.44066506 -1.48835735 22.85896754 0 0 Z " fill="#56F3F9" transform="translate(253,109)"/>
<path d="M0 0 C0.66 0 1.32 0 2 0 C4.10575375 5.52760359 5.37851209 10.06997733 5 16 C5.66 16 6.32 16 7 16 C7.16435547 17.10408203 7.16435547 17.10408203 7.33203125 18.23046875 C8.36835709 24.60850666 9.30976255 29.30976255 14 34 C15.14222874 37.99780058 15.08107875 41.8649837 15 46 C15.66 46 16.32 46 17 46 C17 46.66 17 47.32 17 48 C17.66 48 18.32 48 19 48 C19 48.99 19 49.98 19 51 C20.11375 51.185625 20.11375 51.185625 21.25 51.375 C23.82930049 51.96120466 25.7482162 52.63284555 28 54 C28.33 54.66 28.66 55.32 29 56 C31.64853637 56.77725597 34.25065397 57.45174762 36.9375 58.0625 C44.80016313 59.90008157 44.80016313 59.90008157 47 61 C47 61.66 47 62.32 47 63 C47.61875 63.144375 48.2375 63.28875 48.875 63.4375 C51 64 51 64 53 65 C51.70401211 67.89104992 50.50703864 70.03018393 48 72 C46.576875 72.4640625 46.576875 72.4640625 45.125 72.9375 C41.9277498 73.82021315 41.9277498 73.82021315 39.5625 76 C37 78 37 78 33.5 78.9375 C27.2411503 80.83750795 23.67230745 86.46648408 19.8125 91.5 C19.15604492 92.33337891 19.15604492 92.33337891 18.48632812 93.18359375 C16.05745022 96.33557271 14.26350824 99.22814781 13 103 C12.7421875 103.72960937 12.484375 104.45921875 12.21875 105.2109375 C10.70086031 109.78110536 9.28382324 114.35848522 8 119 C7.34 119 6.68 119 6 119 C5.855625 120.19625 5.71125 121.3925 5.5625 122.625 C5.12960657 126.1005158 4.60383744 129.54950034 4 133 C3.34 133 2.68 133 2 133 C1.67 136.3 1.34 139.6 1 143 C-0.32 143 -1.64 143 -3 143 C-4.1577506 139.52674819 -4.06866652 136.63932552 -4 133 C-4.66 133 -5.32 133 -6 133 C-8.00865708 126.49577707 -9.38614349 120.8218683 -9 114 C-9.99 114 -10.98 114 -12 114 C-12.495 115.98 -12.495 115.98 -13 118 C-13.99 113.05 -13.99 113.05 -15 108 C-15.66 108 -16.32 108 -17 108 C-17.495 103.545 -17.495 103.545 -18 99 C-19.32 99 -20.64 99 -22 99 C-22.09796875 98.22914063 -22.1959375 97.45828125 -22.296875 96.6640625 C-22.44640625 95.66117187 -22.5959375 94.65828125 -22.75 93.625 C-22.88921875 92.62726563 -23.0284375 91.62953125 -23.171875 90.6015625 C-23.72689142 87.85302004 -23.72689142 87.85302004 -26.046875 86.8046875 C-26.69140625 86.53914063 -27.3359375 86.27359375 -28 86 C-28.33333333 84.33333333 -28.66666667 82.66666667 -29 81 C-30.96758273 79.63979849 -30.96758273 79.63979849 -33 79 C-33 78.34 -33 77.68 -33 77 C-34.6396875 76.814375 -34.6396875 76.814375 -36.3125 76.625 C-40 76 -40 76 -43 74 C-43 73.34 -43 72.68 -43 72 C-45.97 71.67 -48.94 71.34 -52 71 C-52.33 70.01 -52.66 69.02 -53 68 C-54.65 68 -56.3 68 -58 68 C-58 67.01 -58 66.02 -58 65 C-57.09507812 64.83564453 -57.09507812 64.83564453 -56.171875 64.66796875 C-55.37265625 64.50941406 -54.5734375 64.35085938 -53.75 64.1875 C-52.96109375 64.03667969 -52.1721875 63.88585937 -51.359375 63.73046875 C-48.93354342 63.1342555 -48.93354342 63.1342555 -47.078125 61.484375 C-43.69472217 59.06765869 -39.92537137 59.16313414 -35.875 58.72265625 C-32.47401296 57.86778858 -31.30524277 56.56697339 -29 54 C-28.13375 53.690625 -27.2675 53.38125 -26.375 53.0625 C-23.77623007 52.22426757 -23.77623007 52.22426757 -23 49.625 C-22.67 48.75875 -22.34 47.8925 -22 47 C-20.35360035 45.64172029 -18.68704193 44.30745749 -17 43 C-16.30251417 41.68252676 -15.63040043 40.35085807 -15 39 C-14.01 38.34 -13.02 37.68 -12 37 C-6.40418668 28.00966758 -4.84832693 16.50969752 -4.2109375 6.14453125 C-4 4 -4 4 -3 2 C-2.34 2 -1.68 2 -1 2 C-0.67 1.34 -0.34 0.68 0 0 Z " fill="#F4FEFD" transform="translate(255,195)"/>
<path d="M0 0 C0.66 0 1.32 0 2 0 C2.495 4.95 2.495 4.95 3 10 C3.33 9.34 3.66 8.68 4 8 C4.66 8 5.32 8 6 8 C6.19491452 9.45736087 6.38069358 10.91594593 6.5625 12.375 C6.71912109 13.59316406 6.71912109 13.59316406 6.87890625 14.8359375 C7 17 7 17 6 19 C7.98 19.495 7.98 19.495 10 20 C9.7215625 21.0828125 9.7215625 21.0828125 9.4375 22.1875 C8.96796425 25.2059441 9.34320421 27.04004029 10 30 C10.15339844 30.83660156 10.30679688 31.67320312 10.46484375 32.53515625 C10.62082031 33.36917969 10.77679688 34.20320313 10.9375 35.0625 C11.09089844 35.89910156 11.24429688 36.73570312 11.40234375 37.59765625 C12.41477423 41.66722975 14.00823086 44.1328879 17 47 C17.66 47.99 18.32 48.98 19 50 C19.99 50 20.98 50 22 50 C25.19703098 53.90748231 25.28999491 57.07008655 25 62 C25.66 62 26.32 62 27 62 C27 62.66 27 63.32 27 64 C27.66 64 28.32 64 29 64 C29 67.3 29 70.6 29 74 C30.98 74.33 32.96 74.66 35 75 C35.33 74.34 35.66 73.68 36 73 C36 73.66 36 74.32 36 75 C38.64 75.66 41.28 76.32 44 77 C44 77.99 44 78.98 44 80 C44.9590625 80.185625 44.9590625 80.185625 45.9375 80.375 C49.97002017 81.1979633 53.98820296 82.08137742 58 83 C59.07314453 83.23009766 59.07314453 83.23009766 60.16796875 83.46484375 C62.44466658 84.12989194 63.46362116 85.23316433 65 87 C65.33 86.01 65.66 85.02 66 84 C68.31 84.33 70.62 84.66 73 85 C73 84.34 73 83.68 73 83 C80.23383135 82.79434101 87.25775778 83.60628823 94.4375 84.4375 C104.95429649 85.61525499 115.42694879 86.56197359 126 87 C126 87.66 126 88.32 126 89 C125.175 89.02578125 124.35 89.0515625 123.5 89.078125 C114.76036202 89.50730365 106.747975 91.02910134 98.32519531 93.36132812 C95.7505494 94.06851772 93.16897267 94.74599137 90.5859375 95.421875 C64.22206085 102.37369052 39.92044869 112.29607665 24.875 136.75 C23.89748595 138.48935881 22.94157789 140.24092813 22 142 C21.29845893 143.28531013 20.59661384 144.57045434 19.89453125 145.85546875 C16.02775787 152.73986583 16.02775787 152.73986583 13 160 C11.68 160 10.36 160 9 160 C8.67 162.31 8.34 164.62 8 167 C7.34 167 6.68 167 6 167 C6 169.31 6 171.62 6 174 C5.34 174.33 4.68 174.66 4 175 C4.020625 175.804375 4.04125 176.60875 4.0625 177.4375 C4 180 4 180 3 181 C3.020625 182.134375 3.04125 183.26875 3.0625 184.4375 C3 188 3 188 1 190 C-0.32 190 -1.64 190 -3 190 C-2.96519531 189.37996094 -2.93039063 188.75992188 -2.89453125 188.12109375 C-2.6386362 179.74967009 -4.16092012 172.11165589 -6 164 C-6.66 164 -7.32 164 -8 164 C-9.17571451 160.32589215 -9.07366746 156.83070817 -9 153 C-10.32 152.67 -11.64 152.34 -13 152 C-12.67 151.401875 -12.34 150.80375 -12 150.1875 C-10.79212012 147.94613529 -10.79212012 147.94613529 -11 145 C-11.66 145 -12.32 145 -13 145 C-14.45184478 140.46298506 -15.23509196 136.81938524 -15 132 C-15.99 132 -16.98 132 -18 132 C-18 131.34 -18 130.68 -18 130 C-18.66 130 -19.32 130 -20 130 C-19.88590407 128.54077307 -19.75834456 127.08259402 -19.625 125.625 C-19.55539063 124.81289063 -19.48578125 124.00078125 -19.4140625 123.1640625 C-19 121 -19 121 -17 119 C-15.79727181 121.40545638 -15.89928528 122.94996953 -15.9375 125.625 C-15.94652344 126.44226563 -15.95554688 127.25953125 -15.96484375 128.1015625 C-15.97644531 128.72804688 -15.98804688 129.35453125 -16 130 C-15.34 130 -14.68 130 -14 130 C-13.34 131.98 -12.68 133.96 -12 136 C-10.68 136 -9.36 136 -8 136 C-6.80343362 142.31972924 -5.72362927 148.60794144 -5 155 C-4.34 155 -3.68 155 -3 155 C-2.67 158.3 -2.34 161.6 -2 165 C-0.68 165 0.64 165 2 165 C1.979375 163.72125 1.95875 162.4425 1.9375 161.125 C1.875 157.25 1.875 157.25 3 155 C3.66 155 4.32 155 5 155 C5.103125 153.72125 5.20625 152.4425 5.3125 151.125 C6.06316116 144.33687835 7.94786415 138.09186464 11 132 C11.309375 130.88625 11.61875 129.7725 11.9375 128.625 C13.76793952 122.37997106 16.8878997 117.52015488 20.875 112.4375 C21.29652344 111.88642578 21.71804688 111.33535156 22.15234375 110.76757812 C29.77314421 100.94443625 29.77314421 100.94443625 35 99.4375 C37.86217044 98.50127603 39.16454504 97.86354802 41.5625 95.875 C44 94 44 94 47.6875 93.5 C48.780625 93.335 49.87375 93.17 51 93 C52.46804363 91.14853436 52.46804363 91.14853436 53 89 C53.33 88.34 53.66 87.68 54 87 C52.02 86.34 50.04 85.68 48 85 C48 84.34 48 83.68 48 83 C46.71222656 82.74605469 45.42445313 82.49210937 44.09765625 82.23046875 C42.41912649 81.88351008 40.74074867 81.53581576 39.0625 81.1875 C38.21236328 81.02185547 37.36222656 80.85621094 36.48632812 80.68554688 C35.67744141 80.51474609 34.86855469 80.34394531 34.03515625 80.16796875 C32.91185913 79.94016724 32.91185913 79.94016724 31.76586914 79.70776367 C31.18313232 79.47420166 30.60039551 79.24063965 30 79 C29.67 78.01 29.34 77.02 29 76 C26.90280128 74.97718482 26.90280128 74.97718482 24.4375 74.3125 C23.61121094 74.06113281 22.78492188 73.80976563 21.93359375 73.55078125 C21.29550781 73.36902344 20.65742188 73.18726563 20 73 C20 72.01 20 71.02 20 70 C19.34 70 18.68 70 18 70 C18 69.34 18 68.68 18 68 C17.34 68 16.68 68 16 68 C15.01 62.06 15.01 62.06 14 56 C13.34 57.32 12.68 58.64 12 60 C11.87882812 59.34773438 11.75765625 58.69546875 11.6328125 58.0234375 C10.89290288 54.16452427 10.1623819 50.46910327 8.875 46.75 C7.90534856 43.70252404 7.84864492 41.17845661 8 38 C7.34 38 6.68 38 6 38 C4.75799248 32.6822785 3.69165788 27.41798672 3 22 C2.34 22 1.68 22 1 22 C0.67 23.32 0.34 24.64 0 26 C0 25.34 0 24.68 0 24 C-0.66 24 -1.32 24 -2 24 C-2.02578125 24.76441406 -2.0515625 25.52882812 -2.078125 26.31640625 C-2.69669797 37.99900021 -4.84432926 49.87292878 -11 60 C-11.99 60.66 -12.98 61.32 -14 62 C-14.433125 62.928125 -14.433125 62.928125 -14.875 63.875 C-16 66 -16 66 -18.5 67.9375 C-21.16520639 69.78212817 -21.16520639 69.78212817 -21.9375 72.5625 C-23.44214758 76.01433856 -25.64700302 76.49457279 -29 78 C-29.43828125 78.50402344 -29.8765625 79.00804687 -30.328125 79.52734375 C-32.69036863 81.60810508 -34.71517096 81.59075499 -37.8125 81.9375 C-42.91705602 82.66146347 -45.79196652 83.96630144 -50 87 C-53.875 87.75 -53.875 87.75 -57 88 C-57 88.33 -57 88.66 -57 89 C-55.7934375 89.185625 -55.7934375 89.185625 -54.5625 89.375 C-53.716875 89.58125 -52.87125 89.7875 -52 90 C-51.67 90.66 -51.34 91.32 -51 92 C-48.88153715 92.68729254 -48.88153715 92.68729254 -46.4375 93.125 C-45.61121094 93.29257812 -44.78492188 93.46015625 -43.93359375 93.6328125 C-42.97646484 93.81457031 -42.97646484 93.81457031 -42 94 C-42 94.66 -42 95.32 -42 96 C-41.28972656 96.19335938 -40.57945312 96.38671875 -39.84765625 96.5859375 C-38.92855469 96.84632813 -38.00945312 97.10671875 -37.0625 97.375 C-35.68771484 97.75785156 -35.68771484 97.75785156 -34.28515625 98.1484375 C-32 99 -32 99 -31 101 C-28.98330173 102.13350534 -28.98330173 102.13350534 -27 103 C-29.93682854 104.46841427 -31.86824322 103.76696084 -35 103 C-36.6875 101.5625 -36.6875 101.5625 -38 100 C-40.99296753 98.00468832 -42.60434925 97.54356766 -46.0625 96.9375 C-50.81321185 96.09339408 -50.81321185 96.09339408 -53 95 C-53 94.34 -53 93.68 -53 93 C-54.010625 92.896875 -55.02125 92.79375 -56.0625 92.6875 C-60.21218208 91.96295233 -63.21356263 90.77730734 -67 89 C-65 86 -65 86 -62.3984375 85.26953125 C-61.40070313 85.11871094 -60.40296875 84.96789062 -59.375 84.8125 C-58.37210938 84.65394531 -57.36921875 84.49539063 -56.3359375 84.33203125 C-55.17964844 84.16767578 -55.17964844 84.16767578 -54 84 C-54 83.01 -54 82.02 -54 81 C-51.03 80.505 -51.03 80.505 -48 80 C-48 79.34 -48 78.68 -48 78 C-45.69 78 -43.38 78 -41 78 C-40.505 76.515 -40.505 76.515 -40 75 C-38.68 75 -37.36 75 -36 75 C-36 74.01 -36 73.02 -36 72 C-35.34 72 -34.68 72 -34 72 C-33.505 70.515 -33.505 70.515 -33 69 C-31.546875 67.60546875 -31.546875 67.60546875 -29.75 66.1875 C-19.63486664 57.74446012 -12.53200906 44.05977326 -10.71923828 30.97314453 C-10.42740669 27.70261807 -10.30424313 24.46389497 -10.23828125 21.1796875 C-10.013175 18.17581068 -9.57405805 16.52100135 -8 14 C-6.68 14 -5.36 14 -4 14 C-3.38453017 11.09849938 -2.91248136 8.26234289 -2.5625 5.3125 C-2 2 -2 2 0 0 Z " fill="#75FBFC" transform="translate(254,173)"/>
<path d="M0 0 C0.66 0 1.32 0 2 0 C4.10575375 5.52760359 5.37851209 10.06997733 5 16 C5.66 16 6.32 16 7 16 C7.16435547 17.10408203 7.16435547 17.10408203 7.33203125 18.23046875 C8.36835709 24.60850666 9.30976255 29.30976255 14 34 C15.14222874 37.99780058 15.08107875 41.8649837 15 46 C15.66 46 16.32 46 17 46 C17 46.66 17 47.32 17 48 C17.66 48 18.32 48 19 48 C19 48.99 19 49.98 19 51 C20.11375 51.185625 20.11375 51.185625 21.25 51.375 C23.82930049 51.96120466 25.7482162 52.63284555 28 54 C28.33 54.66 28.66 55.32 29 56 C31.64853637 56.77725597 34.25065397 57.45174762 36.9375 58.0625 C44.80016313 59.90008157 44.80016313 59.90008157 47 61 C47 61.66 47 62.32 47 63 C47.61875 63.144375 48.2375 63.28875 48.875 63.4375 C51 64 51 64 53 65 C51.70401211 67.89104992 50.50703864 70.03018393 48 72 C46.576875 72.4640625 46.576875 72.4640625 45.125 72.9375 C41.9277498 73.82021315 41.9277498 73.82021315 39.5625 76 C37 78 37 78 33.5 78.9375 C27.2411503 80.83750795 23.67230745 86.46648408 19.8125 91.5 C19.15604492 92.33337891 19.15604492 92.33337891 18.48632812 93.18359375 C16.05745022 96.33557271 14.26350824 99.22814781 13 103 C12.7421875 103.72960937 12.484375 104.45921875 12.21875 105.2109375 C10.70086031 109.78110536 9.28382324 114.35848522 8 119 C7.34 119 6.68 119 6 119 C5.855625 120.19625 5.71125 121.3925 5.5625 122.625 C5.12960657 126.1005158 4.60383744 129.54950034 4 133 C3.34 133 2.68 133 2 133 C1.67 136.3 1.34 139.6 1 143 C-0.32 143 -1.64 143 -3 143 C-4.1577506 139.52674819 -4.06866652 136.63932552 -4 133 C-4.66 133 -5.32 133 -6 133 C-8.00865708 126.49577707 -9.38614349 120.8218683 -9 114 C-9.99 114 -10.98 114 -12 114 C-12.495 115.98 -12.495 115.98 -13 118 C-13.99 113.05 -13.99 113.05 -15 108 C-15.66 108 -16.32 108 -17 108 C-17.495 103.545 -17.495 103.545 -18 99 C-19.32 99 -20.64 99 -22 99 C-22.09796875 98.22914063 -22.1959375 97.45828125 -22.296875 96.6640625 C-22.44640625 95.66117187 -22.5959375 94.65828125 -22.75 93.625 C-22.88921875 92.62726563 -23.0284375 91.62953125 -23.171875 90.6015625 C-23.72689142 87.85302004 -23.72689142 87.85302004 -26.046875 86.8046875 C-26.69140625 86.53914063 -27.3359375 86.27359375 -28 86 C-28.33333333 84.33333333 -28.66666667 82.66666667 -29 81 C-30.96758273 79.63979849 -30.96758273 79.63979849 -33 79 C-33 78.34 -33 77.68 -33 77 C-34.6396875 76.814375 -34.6396875 76.814375 -36.3125 76.625 C-40 76 -40 76 -43 74 C-43 73.34 -43 72.68 -43 72 C-45.97 71.67 -48.94 71.34 -52 71 C-52.33 70.01 -52.66 69.02 -53 68 C-54.65 68 -56.3 68 -58 68 C-58 67.01 -58 66.02 -58 65 C-57.09507812 64.83564453 -57.09507812 64.83564453 -56.171875 64.66796875 C-55.37265625 64.50941406 -54.5734375 64.35085938 -53.75 64.1875 C-52.96109375 64.03667969 -52.1721875 63.88585937 -51.359375 63.73046875 C-48.93354342 63.1342555 -48.93354342 63.1342555 -47.078125 61.484375 C-43.69472217 59.06765869 -39.92537137 59.16313414 -35.875 58.72265625 C-32.47401296 57.86778858 -31.30524277 56.56697339 -29 54 C-28.13375 53.690625 -27.2675 53.38125 -26.375 53.0625 C-23.77623007 52.22426757 -23.77623007 52.22426757 -23 49.625 C-22.67 48.75875 -22.34 47.8925 -22 47 C-20.35360035 45.64172029 -18.68704193 44.30745749 -17 43 C-16.30251417 41.68252676 -15.63040043 40.35085807 -15 39 C-14.01 38.34 -13.02 37.68 -12 37 C-6.40418668 28.00966758 -4.84832693 16.50969752 -4.2109375 6.14453125 C-4 4 -4 4 -3 2 C-2.34 2 -1.68 2 -1 2 C-0.67 1.34 -0.34 0.68 0 0 Z M-1 12 C-3.65677229 17.80717463 -3.65677229 17.80717463 -3.4375 24 C-2.68637801 28.1513624 -3.83710653 30.29902513 -5.90625 33.87109375 C-7.10763595 36.20950569 -7.64976894 38.38256912 -8.25 40.9375 C-9.89509813 46.84157439 -13.45570658 50.97793385 -18 55 C-19.485 55.495 -19.485 55.495 -21 56 C-21 56.66 -21 57.32 -21 58 C-22.010625 58.0825 -23.02125 58.165 -24.0625 58.25 C-27.59034418 58.73490289 -29.87703069 60.11094252 -32.890625 62.01171875 C-37.2741805 64.06549568 -42.23567486 64.40543726 -47 65 C-46.78326789 66.96370706 -46.78326789 66.96370706 -46 69 C-44.35831144 70.06447417 -44.35831144 70.06447417 -42.3125 70.625 C-41.58933594 70.86089844 -40.86617187 71.09679687 -40.12109375 71.33984375 C-39.07115234 71.66662109 -39.07115234 71.66662109 -38 72 C-36.96875 72.391875 -35.9375 72.78375 -34.875 73.1875 C-31.79033638 74.05925276 -29.18943797 74.151878 -26 74 C-26 75.32 -26 76.64 -26 78 C-23.0929357 80.16026765 -23.0929357 80.16026765 -20 82 C-19.505 82.99 -19.505 82.99 -19 84 C-18.34 84 -17.68 84 -17 84 C-17 84.66 -17 85.32 -17 86 C-16.34 86 -15.68 86 -15 86 C-15 86.66 -15 87.32 -15 88 C-14.01 88 -13.02 88 -12 88 C-12 90.31 -12 92.62 -12 95 C-11.505 93.515 -11.505 93.515 -11 92 C-10.01 92 -9.02 92 -8 92 C-7.95101562 92.86882812 -7.90203125 93.73765625 -7.8515625 94.6328125 C-7.77679688 95.78523438 -7.70203125 96.93765625 -7.625 98.125 C-7.55539063 99.26195312 -7.48578125 100.39890625 -7.4140625 101.5703125 C-6.83373626 106.37716568 -5.68615843 109.97076236 -3 114 C-2.68115234 116.4519043 -2.68115234 116.4519043 -2.5859375 119.32421875 C-2.52792969 120.86625977 -2.52792969 120.86625977 -2.46875 122.43945312 C-2.4378125 123.51130859 -2.406875 124.58316406 -2.375 125.6875 C-2.31699219 127.31268555 -2.31699219 127.31268555 -2.2578125 128.97070312 C-2.16349491 131.64696467 -2.07789995 134.32321843 -2 137 C-1.34 136.67 -0.68 136.34 0 136 C0.39258939 133.47907827 0.39258939 133.47907827 0.5 130.5625 C0.77854195 125.22145805 0.77854195 125.22145805 3 123 C3.49030028 121.12297059 3.97313712 119.24354764 4.41064453 117.35351562 C5.48440598 113.06558672 6.98047409 108.92000197 8.4375 104.75 C8.88706055 103.42355469 8.88706055 103.42355469 9.34570312 102.0703125 C9.64283203 101.21695313 9.93996094 100.36359375 10.24609375 99.484375 C10.51091553 98.71834961 10.7757373 97.95232422 11.04858398 97.16308594 C12.08437163 94.8081774 13.43426879 93.03104044 15 91 C15.30164063 90.16597656 15.60328125 89.33195312 15.9140625 88.47265625 C17.23977938 85.45402752 18.71266371 84.34359127 21.375 82.4375 C23.81647198 80.66967831 26.00006386 78.99993484 28.11328125 76.84375 C30.5251593 74.48680085 32.81304848 74.06231717 36 73 C38.54106616 71.57352624 41.00475501 70.13691919 43 68 C43 66.68 43 65.36 43 64 C37.60988478 63.14892918 33.43139153 63.1644013 28 64 C25.9375 63.5625 25.9375 63.5625 24 63 C22.00036972 62.96154557 19.99948367 62.95455719 18 63 C17.979375 62.278125 17.95875 61.55625 17.9375 60.8125 C16.57987768 56.73963305 13.69931507 55.00771141 10 53 C9.34 53 8.68 53 8 53 C7.87939209 51.8718689 7.87939209 51.8718689 7.75634766 50.72094727 C7.38881021 47.3336781 7.00710329 43.94815561 6.625 40.5625 C6.49867188 39.37849609 6.37234375 38.19449219 6.2421875 36.97460938 C6.11328125 35.84990234 5.984375 34.72519531 5.8515625 33.56640625 C5.67874756 32.00321655 5.67874756 32.00321655 5.50244141 30.40844727 C5.33663574 29.61365967 5.17083008 28.81887207 5 28 C4.34 27.67 3.68 27.34 3 27 C2.36198164 24.4684134 1.83312632 22.00160498 1.375 19.4375 C1.17390625 18.37112305 1.17390625 18.37112305 0.96875 17.28320312 C0.63808153 15.52357447 0.31804233 13.76195452 0 12 C-0.33 12 -0.66 12 -1 12 Z " fill="#B7FEFC" transform="translate(255,195)"/>
<path d="M0 0 C1.78664063 0.18175781 1.78664063 0.18175781 3.609375 0.3671875 C18.71982009 1.87081974 33.85053469 2.97162857 49 4 C49 4.66 49 5.32 49 6 C47.7625 6.03867187 47.7625 6.03867187 46.5 6.078125 C37.76036202 6.50730365 29.747975 8.02910134 21.32519531 10.36132812 C18.7505494 11.06851772 16.16897267 11.74599137 13.5859375 12.421875 C-12.88771199 19.40263621 -37.2327614 29.38733102 -52.25 54 C-53.18278813 55.65769776 -54.09881316 57.32491259 -55 59 C-55.55945313 60.01320313 -56.11890625 61.02640625 -56.6953125 62.0703125 C-58.14464753 64.70607992 -59.57874919 67.34901445 -61 70 C-63.00390625 68.78515625 -63.00390625 68.78515625 -65 67 C-65.27734375 64.80859375 -65.27734375 64.80859375 -64.9375 62.4375 C-64.79634766 61.25994141 -64.79634766 61.25994141 -64.65234375 60.05859375 C-64 58 -64 58 -61 56 C-61 54.68 -61 53.36 -61 52 C-60.01 51.505 -60.01 51.505 -59 51 C-58.66497135 49.33367329 -58.33198443 47.66693588 -58 46 C-57.10639005 44.11378738 -56.1435704 42.25927143 -55.125 40.4375 C-54.35542969 39.04337891 -54.35542969 39.04337891 -53.5703125 37.62109375 C-52.16963227 35.28314243 -50.68235211 33.1407175 -49 31 C-49.99 30.67 -50.98 30.34 -52 30 C-48.34797293 26.7013949 -44.66662408 24.80991859 -40.18359375 22.9296875 C-35.83016761 21.3415289 -35.83016761 21.3415289 -33 18 C-32.236875 17.87625 -31.47375 17.7525 -30.6875 17.625 C-27.86948906 17.23199554 -27.86948906 17.23199554 -26.125 15 C-23.25085708 12.29492431 -20.84920155 12.4199129 -17 12 C-16.01 11.34 -15.02 10.68 -14 10 C-11.3125 10.375 -11.3125 10.375 -9 11 C-9 10.34 -9 9.68 -9 9 C-5.7 8.67 -2.4 8.34 1 8 C1.33 6.68 1.66 5.36 2 4 C1.01 3.67 0.02 3.34 -1 3 C-0.67 2.01 -0.34 1.02 0 0 Z " fill="#53F1F8" transform="translate(331,256)"/>
<path d="M0 0 C0.66 0 1.32 0 2 0 C4.10575375 5.52760359 5.37851209 10.06997733 5 16 C5.66 16 6.32 16 7 16 C7.10957031 16.73605469 7.21914063 17.47210938 7.33203125 18.23046875 C8.36835709 24.60850666 9.30976255 29.30976255 14 34 C15.14222874 37.99780058 15.08107875 41.8649837 15 46 C15.66 46 16.32 46 17 46 C17 46.66 17 47.32 17 48 C17.66 48 18.32 48 19 48 C19 48.99 19 49.98 19 51 C20.11375 51.185625 20.11375 51.185625 21.25 51.375 C23.82930049 51.96120466 25.7482162 52.63284555 28 54 C28.33 54.66 28.66 55.32 29 56 C31.64853637 56.77725597 34.25065397 57.45174762 36.9375 58.0625 C44.80016313 59.90008157 44.80016313 59.90008157 47 61 C47 61.66 47 62.32 47 63 C47.61875 63.144375 48.2375 63.28875 48.875 63.4375 C51 64 51 64 53 65 C51.70401211 67.89104992 50.50703864 70.03018393 48 72 C46.576875 72.4640625 46.576875 72.4640625 45.125 72.9375 C41.9277498 73.82021315 41.9277498 73.82021315 39.5625 76 C37 78 37 78 33.5 78.9375 C27.2411503 80.83750795 23.67230745 86.46648408 19.8125 91.5 C19.15604492 92.33337891 19.15604492 92.33337891 18.48632812 93.18359375 C16.05745022 96.33557271 14.26350824 99.22814781 13 103 C12.7421875 103.72960937 12.484375 104.45921875 12.21875 105.2109375 C10.70086031 109.78110536 9.28382324 114.35848522 8 119 C7.34 119 6.68 119 6 119 C5.855625 120.19625 5.71125 121.3925 5.5625 122.625 C5.12960657 126.1005158 4.60383744 129.54950034 4 133 C3.34 133 2.68 133 2 133 C1.67 136.3 1.34 139.6 1 143 C-0.32 143 -1.64 143 -3 143 C-4.1577506 139.52674819 -4.06866652 136.63932552 -4 133 C-4.66 133 -5.32 133 -6 133 C-8.00865708 126.49577707 -9.38614349 120.8218683 -9 114 C-9.99 114 -10.98 114 -12 114 C-12.33 115.32 -12.66 116.64 -13 118 C-13.66 114.7 -14.32 111.4 -15 108 C-15.66 108 -16.32 108 -17 108 C-17.33 105.03 -17.66 102.06 -18 99 C-19.32 99 -20.64 99 -22 99 C-22.14695313 97.84371094 -22.14695313 97.84371094 -22.296875 96.6640625 C-22.44640625 95.66117187 -22.5959375 94.65828125 -22.75 93.625 C-22.88921875 92.62726563 -23.0284375 91.62953125 -23.171875 90.6015625 C-23.74386889 87.85438953 -23.74386889 87.85438953 -26.078125 86.6484375 C-26.71234375 86.43445313 -27.3465625 86.22046875 -28 86 C-27.67 84.68 -27.34 83.36 -27 82 C-18.72727273 87.72727273 -18.72727273 87.72727273 -16 91 C-16 91.99 -16 92.98 -16 94 C-15.34 94 -14.68 94 -14 94 C-13.67 95.65 -13.34 97.3 -13 99 C-12.34 99 -11.68 99 -11 99 C-10.81824219 99.83402344 -10.63648438 100.66804688 -10.44921875 101.52734375 C-9.15009351 107.34342752 -7.74486312 112.98162372 -5.7578125 118.59765625 C-4.44598447 122.75628635 -3.57478285 127.01914334 -2.6484375 131.27734375 C-2.12226754 133.94531617 -2.12226754 133.94531617 -1 136 C-0.95101562 135.22914063 -0.90203125 134.45828125 -0.8515625 133.6640625 C-0.77679688 132.66117188 -0.70203125 131.65828125 -0.625 130.625 C-0.55539063 129.62726563 -0.48578125 128.62953125 -0.4140625 127.6015625 C0 125 0 125 2 123 C2.49030028 121.12297059 2.97313712 119.24354764 3.41064453 117.35351562 C4.48440598 113.06558672 5.98047409 108.92000197 7.4375 104.75 C7.88706055 103.42355469 7.88706055 103.42355469 8.34570312 102.0703125 C8.64283203 101.21695313 8.93996094 100.36359375 9.24609375 99.484375 C9.51091553 98.71834961 9.7757373 97.95232422 10.04858398 97.16308594 C11.08364047 94.80983973 12.4382033 93.03131998 14 91 C14.226875 90.236875 14.45375 89.47375 14.6875 88.6875 C16.73318048 84.49872568 20.25137692 81.7099421 24 79 C24.66 79 25.32 79 26 79 C26.2475 78.1028125 26.2475 78.1028125 26.5 77.1875 C28.52142299 74.23959147 30.59242185 73.89218495 33.89453125 72.7734375 C37.02503738 71.62345566 39.43880661 70.12391647 42 68 C42.33 66.35 42.66 64.7 43 63 C33.595 61.515 33.595 61.515 24 60 C24 59.34 24 58.68 24 58 C23.01 58 22.02 58 21 58 C21 57.34 21 56.68 21 56 C18.69 55.67 16.38 55.34 14 55 C13.71125 54.030625 13.4225 53.06125 13.125 52.0625 C12.35785318 48.89335797 12.35785318 48.89335797 10 48 C10 46.02 10 44.04 10 42 C9.34 42 8.68 42 8 42 C6.85384046 38.56152139 6.51723544 35.20509325 6.125 31.625 C5.38426301 25.20454887 4.21063701 19.03508037 2.5859375 12.76953125 C2.0184648 10.08727694 1.89014729 7.73133789 2 5 C1.34 5 0.68 5 0 5 C0 3.35 0 1.7 0 0 Z " fill="#A5FEFC" transform="translate(255,195)"/>
<path d="M0 0 C2.76901107 2.76901107 2.33173354 4.62987143 2.5 8.5 C2.72469292 13.5780601 3.41183901 18.30052066 4.45605469 23.25537109 C5.46082071 28.32520039 6.13222549 33.44897236 6.875 38.5625 C8.14217537 47.13403188 9.59771182 55.55708202 11.86865234 63.92407227 C13.41339671 69.7973032 13.41339671 69.7973032 12 73 C9.9375 74.75 9.9375 74.75 8 76 C7.67 75.01 7.34 74.02 7 73 C6.01 72.505 6.01 72.505 5 72 C5 73.65 5 75.3 5 77 C2.79086 73.68629 2.77518447 72.6553979 2.875 68.8125 C2.89304688 67.91144531 2.91109375 67.01039063 2.9296875 66.08203125 C2.95289063 65.39496094 2.97609375 64.70789063 3 64 C1.515 64.99 1.515 64.99 0 66 C-0.39460023 68.32375692 -0.72230092 70.6593935 -1 73 C-2.0625 75.9375 -2.0625 75.9375 -3 78 C-4.32 78 -5.64 78 -7 78 C-8.1188496 81.62723821 -8.13815305 85.09617085 -8.25 88.875 C-8.61518326 96.90803671 -10.91225824 103.60537121 -14 111 C-15.39415471 106.89091243 -14.31688475 104.80278015 -12.59375 101 C-11.88800973 98.62276961 -12.21381998 97.31716216 -13 95 C-14.60539721 97.55404101 -15.96642355 99.90766477 -17 102.75 C-17.33 103.4925 -17.66 104.235 -18 105 C-19.485 105.495 -19.485 105.495 -21 106 C-21 105.34 -21 104.68 -21 104 C-23.475 104.99 -23.475 104.99 -26 106 C-23.97853529 100.68972743 -21.47349498 95.61681983 -19.00976562 90.50195312 C-16.74486827 85.74609522 -14.76721463 80.9613292 -13 76 C-12.58878906 74.86820312 -12.17757812 73.73640625 -11.75390625 72.5703125 C-3.56463364 48.88854712 -1.61933933 24.87065698 0 0 Z " fill="#49EAF8" transform="translate(253,109)"/>
<path d="M0 0 C0.66 0 1.32 0 2 0 C2.495 4.95 2.495 4.95 3 10 C3.33 9.34 3.66 8.68 4 8 C4.66 8 5.32 8 6 8 C6.19491452 9.45736087 6.38069358 10.91594593 6.5625 12.375 C6.71912109 13.59316406 6.71912109 13.59316406 6.87890625 14.8359375 C7 17 7 17 6 19 C7.32 19.33 8.64 19.66 10 20 C9.7215625 21.0828125 9.7215625 21.0828125 9.4375 22.1875 C8.96796425 25.2059441 9.34320421 27.04004029 10 30 C10.15339844 30.83660156 10.30679688 31.67320312 10.46484375 32.53515625 C10.62082031 33.36917969 10.77679688 34.20320313 10.9375 35.0625 C11.09089844 35.89910156 11.24429688 36.73570312 11.40234375 37.59765625 C12.41477423 41.66722975 14.00823086 44.1328879 17 47 C17.66 47.99 18.32 48.98 19 50 C19.99 50 20.98 50 22 50 C25.19703098 53.90748231 25.28999491 57.07008655 25 62 C25.66 62 26.32 62 27 62 C27 62.66 27 63.32 27 64 C27.66 64 28.32 64 29 64 C29 66.97 29 69.94 29 73 C27.35 73 25.7 73 24 73 C23.71125 72.360625 23.4225 71.72125 23.125 71.0625 C22.17176549 68.84793921 22.17176549 68.84793921 20 68 C19.37147066 65.66752185 18.84464754 63.30708533 18.375 60.9375 C18.11460937 59.64714844 17.85421875 58.35679687 17.5859375 57.02734375 C17.39257812 56.02832031 17.19921875 55.02929688 17 54 C16.34 54 15.68 54 15 54 C14.855625 53.236875 14.71125 52.47375 14.5625 51.6875 C14.0367406 48.91827092 14.0367406 48.91827092 13 46 C12.34 46 11.68 46 11 46 C11 44.35 11 42.7 11 41 C10.34 41 9.68 41 9 41 C8.81824219 39.80761719 8.63648438 38.61523438 8.44921875 37.38671875 C8.19595074 35.82020918 7.94200928 34.25380838 7.6875 32.6875 C7.51057617 31.50897461 7.51057617 31.50897461 7.33007812 30.30664062 C7.20439453 29.54931641 7.07871094 28.79199219 6.94921875 28.01171875 C6.83924561 27.31522217 6.72927246 26.61872559 6.6159668 25.90112305 C5.87223141 23.60565439 4.73586651 22.63478134 3 21 C2.3046875 18.625 2.3046875 18.625 1.875 16 C1.39896358 13.19389055 0.90318521 10.70955563 0 8 C-0.23783203 9.32064453 -0.23783203 9.32064453 -0.48046875 10.66796875 C-2.44767349 20.46051829 -2.44767349 20.46051829 -5.6875 23.625 C-8.58089067 26.59659042 -8.29652901 27.70714616 -8.25 31.75 C-8.19328125 32.71421875 -8.1365625 33.6784375 -8.078125 34.671875 C-8.05234375 35.44015625 -8.0265625 36.2084375 -8 37 C-8.33 37.33 -8.66 37.66 -9 38 C-9.2819396 40.28684338 -9.44777005 42.57363273 -9.62109375 44.87109375 C-10 47 -10 47 -12 49 C-12.64767793 51.57061311 -12.64767793 51.57061311 -13 54 C-13.66 54 -14.32 54 -15 54 C-15.99 56.475 -15.99 56.475 -17 59 C-17.99 59 -18.98 59 -20 59 C-20.103125 59.61875 -20.20625 60.2375 -20.3125 60.875 C-21 63 -21 63 -24 65 C-25.00168531 66.94832935 -25.00168531 66.94832935 -25.6875 69.125 C-26.06455078 70.21167969 -26.06455078 70.21167969 -26.44921875 71.3203125 C-26.63097656 71.87460938 -26.81273437 72.42890625 -27 73 C-28.11375 73.0825 -29.2275 73.165 -30.375 73.25 C-34.05753944 73.57873787 -34.05753944 73.57873787 -35.4375 76.0625 C-35.623125 76.701875 -35.80875 77.34125 -36 78 C-37.65 78 -39.3 78 -41 78 C-40.67 77.01 -40.34 76.02 -40 75 C-38.68 75 -37.36 75 -36 75 C-36 74.01 -36 73.02 -36 72 C-35.34 72 -34.68 72 -34 72 C-33.67 71.01 -33.34 70.02 -33 69 C-31.546875 67.60546875 -31.546875 67.60546875 -29.75 66.1875 C-19.63486664 57.74446012 -12.53200906 44.05977326 -10.71923828 30.97314453 C-10.42740669 27.70261807 -10.30424313 24.46389497 -10.23828125 21.1796875 C-10.013175 18.17581068 -9.57405805 16.52100135 -8 14 C-6.68 14 -5.36 14 -4 14 C-3.38453017 11.09849938 -2.91248136 8.26234289 -2.5625 5.3125 C-2 2 -2 2 0 0 Z " fill="#64FBFC" transform="translate(254,173)"/>
<path d="M0 0 C0.99 0.495 0.99 0.495 2 1 C-1 3 -1 3 -4 3 C-4.33 5.64 -4.66 8.28 -5 11 C-9.61251872 12.27241896 -13.31503575 11.83288253 -18 11 C-17.505 12.485 -17.505 12.485 -17 14 C-18.99954746 14.04254356 -21.00041636 14.04080783 -23 14 C-23.495 13.505 -23.495 13.505 -24 13 C-24.680625 13.33 -25.36125 13.66 -26.0625 14 C-29.50840238 15.17307315 -32.38397422 15.14180493 -36 15 C-36 15.99 -36 16.98 -36 18 C-31.38 18 -26.76 18 -22 18 C-21.34 19.32 -20.68 20.64 -20 22 C-19.13375 21.95875 -18.2675 21.9175 -17.375 21.875 C-13.87641532 22.00457721 -11.25448403 22.76019656 -8 24 C-8 24.66 -8 25.32 -8 26 C-9.65 26.33 -11.3 26.66 -13 27 C-13 27.66 -13 28.32 -13 29 C-18.34637982 27.57262928 -23.67698767 26.10161425 -28.984375 24.53515625 C-38.28807137 21.79842727 -47.36423431 19.24100754 -57 18 C-57.9892749 17.87246338 -58.9785498 17.74492676 -59.99780273 17.61352539 C-66.99587162 16.71985798 -73.99623344 15.84786014 -81 15 C-81 14.67 -81 14.34 -81 14 C-76.2781127 13.26516549 -71.6440476 12.81562286 -66.87109375 12.60546875 C-65.50296239 12.53965985 -64.13488098 12.47280612 -62.7668457 12.4050293 C-61.70634506 12.35274673 -61.70634506 12.35274673 -60.62442017 12.29940796 C-40.34264065 11.26155912 -21.00694497 9.05853903 -2.25390625 0.7890625 C-1.51011719 0.52867187 -0.76632813 0.26828125 0 0 Z " fill="#46DAF6" transform="translate(199,245)"/>
<path d="M0 0 C1.32 0 2.64 0 4 0 C3.81824219 0.71542969 3.63648438 1.43085938 3.44921875 2.16796875 C3.19785156 3.16441406 2.94648438 4.16085937 2.6875 5.1875 C2.44386719 6.15042969 2.20023437 7.11335938 1.94921875 8.10546875 C1.6327589 9.40363277 1.31636138 10.70181198 1 12 C0.78053711 12.8664917 0.56107422 13.7329834 0.33496094 14.62573242 C-2.10791404 24.63815809 -3.61074195 34.75368822 -5.125 44.9375 C-5.52159242 47.57041962 -5.91958059 50.20312592 -6.31759644 52.83583069 C-6.5625245 54.45954523 -6.80634659 56.08342713 -7.04885864 57.70750427 C-7.66231554 61.81179905 -8.30369582 65.90870515 -9 70 C-9.66 70 -10.32 70 -11 70 C-13.9165893 61.87243781 -14.64479733 53.69173173 -15.26513672 45.14599609 C-15.67465045 39.73174281 -16.38310191 34.55323782 -17.58325195 29.25463867 C-18.22239473 25.79682757 -18.12988293 22.5068392 -18 19 C-16.35 18.34 -14.7 17.68 -13 17 C-11.86235649 21.26616316 -11 24.56486311 -11 29 C-9.68 28.67 -8.36 28.34 -7 28 C-7.020625 26.9275 -7.04125 25.855 -7.0625 24.75 C-6.99422868 20.65372058 -6.27969116 17.83907347 -5 14 C-4.67 14 -4.34 14 -4 14 C-3.67 11.69 -3.34 9.38 -3 7 C-2.34 7 -1.68 7 -1 7 C-0.67 4.69 -0.34 2.38 0 0 Z " fill="#52EAF7" transform="translate(263,333)"/>
<path d="M0 0 C1.7290774 -0.02725341 3.45828176 -0.04650987 5.1875 -0.0625 C6.15042969 -0.07410156 7.11335937 -0.08570313 8.10546875 -0.09765625 C10.85576513 -0.00486622 13.32479591 0.37888315 16 1 C16 1.99 16 2.98 16 4 C16.99 4.33 17.98 4.66 19 5 C19 5.66 19 6.32 19 7 C20.65 7 22.3 7 24 7 C24 7.66 24 8.32 24 9 C25.60875 8.9071875 25.60875 8.9071875 27.25 8.8125 C31.35152279 9.01757614 32.00421122 9.47230321 35 12 C36.21458053 12.57362672 37.44544924 13.11356733 38.6875 13.625 C42 15 42 15 43 16 C43.04092937 18.33297433 43.04241723 20.66705225 43 23 C43.66 23.33 44.32 23.66 45 24 C44.34 25.98 43.68 27.96 43 30 C44.72855926 32.14567913 44.72855926 32.14567913 47 34 C48.98 33.505 48.98 33.505 51 33 C50.34 35.97 49.68 38.94 49 42 C48.42378906 41.27425781 47.84757812 40.54851562 47.25390625 39.80078125 C36.03865158 25.86432094 23.00048321 16.87025245 7 9 C7 8.34 7 7.68 7 7 C8.65 6.67 10.3 6.34 12 6 C12 5.34 12 4.68 12 4 C11.13375 3.855625 10.2675 3.71125 9.375 3.5625 C7.125 3.1875 4.875 2.8125 2.625 2.4375 C1.75875 2.293125 0.8925 2.14875 0 2 C0 1.34 0 0.68 0 0 Z " fill="#49EBF7" transform="translate(179,265)"/>
<path d="M0 0 C2 2 2 2 2.1953125 4.1640625 C2.17210937 4.97617187 2.14890625 5.78828125 2.125 6.625 C2.10695312 7.44226563 2.08890625 8.25953125 2.0703125 9.1015625 C2.03550781 10.04128906 2.03550781 10.04128906 2 11 C2.66 11 3.32 11 4 11 C4.66 12.98 5.32 14.96 6 17 C7.32 17 8.64 17 10 17 C11.19656638 23.31972924 12.27637073 29.60794144 13 36 C13.66 36 14.32 36 15 36 C15.33 39.3 15.66 42.6 16 46 C17.32 46 18.64 46 20 46 C19.979375 44.72125 19.95875 43.4425 19.9375 42.125 C19.875 38.25 19.875 38.25 21 36 C21.66 36 22.32 36 23 36 C23.103125 34.72125 23.20625 33.4425 23.3125 32.125 C23.96721745 26.20448365 25.35126156 20.28503356 28.03515625 14.9375 C29.18943967 12.77815233 29.18943967 12.77815233 30 9.3125 C30.33 8.219375 30.66 7.12625 31 6 C31.66 5.67 32.32 5.34 33 5 C33.25 10.625 33.25 10.625 31 14 C30.70045396 17.35919484 30.62174115 20.69537211 30.5390625 24.06640625 C30.36117187 25.03449219 30.18328125 26.00257813 30 27 C27.9609375 28.40234375 27.9609375 28.40234375 26 29 C26.2475 30.670625 26.2475 30.670625 26.5 32.375 C27 36 27 36 27 38 C26.01 38.495 26.01 38.495 25 39 C24.63473747 41.32854865 24.30649316 43.66298962 24 46 C23.37743972 48.01416562 22.72433347 50.02015519 22 52 C21.01 52 20.02 52 19 52 C19 54.64 19 57.28 19 60 C17.515 59.505 17.515 59.505 16 59 C15.67 56.03 15.34 53.06 15 50 C14.34 50 13.68 50 13 50 C12.67 48.35 12.34 46.7 12 45 C11.34 45 10.68 45 10 45 C8.82428549 41.32589215 8.92633254 37.83070817 9 34 C7.68 33.67 6.36 33.34 5 33 C5.33 32.401875 5.66 31.80375 6 31.1875 C7.20787988 28.94613529 7.20787988 28.94613529 7 26 C6.34 26 5.68 26 5 26 C3.54815522 21.46298506 2.76490804 17.81938524 3 13 C2.01 13 1.02 13 0 13 C0 12.34 0 11.68 0 11 C-0.66 11 -1.32 11 -2 11 C-1.85892253 9.54119891 -1.71197585 8.08296449 -1.5625 6.625 C-1.48128906 5.81289063 -1.40007812 5.00078125 -1.31640625 4.1640625 C-1 2 -1 2 0 0 Z " fill="#8BFCFC" transform="translate(236,292)"/>
<path d="M0 0 C1.21236328 0.02707031 1.21236328 0.02707031 2.44921875 0.0546875 C3.37154297 0.08949219 3.37154297 0.08949219 4.3125 0.125 C2.31605501 4.11788998 -2.24666007 5.37111949 -6.1875 7 C-10.23389833 8.75901283 -12.70806299 10.82346169 -15.6875 14.125 C-16.71875 14.90875 -17.75 15.6925 -18.8125 16.5 C-22.06468446 19.46938581 -23.23409137 22.10977514 -24.6875 26.125 C-25.49460908 28.04394302 -26.3076417 29.9604001 -27.125 31.875 C-30.03304728 38.87358367 -32.88416856 45.91038188 -34.8125 53.25 C-35.10125 54.19875 -35.39 55.1475 -35.6875 56.125 C-36.6775 56.62 -36.6775 56.62 -37.6875 57.125 C-37.74184116 54.5830411 -37.7813339 52.04226318 -37.8125 49.5 C-37.82925781 48.78714844 -37.84601563 48.07429688 -37.86328125 47.33984375 C-37.90452071 42.84474305 -37.33424112 39.37185867 -35.6875 35.125 C-35.44 34.0525 -35.1925 32.98 -34.9375 31.875 C-33.52568547 27.63955641 -31.48985971 24.30237291 -29.125 20.5390625 C-27.52759052 18.00186817 -27.52759052 18.00186817 -26.25 14.5 C-24.13679874 9.93548527 -21.73510333 6.188863 -17.6875 3.125 C-15.01197851 2.44292472 -12.67808824 2.24925283 -9.921875 2.2578125 C-6.12851464 2.03233304 -4.10014892 -0.1188449 0 0 Z " fill="#DDFDFC" transform="translate(292.6875,262.875)"/>
<path d="M0 0 C0.66 0.33 1.32 0.66 2 1 C1.48635272 5.36600184 0.62256946 8.94357635 -1 13 C-1.0825 14.0725 -1.165 15.145 -1.25 16.25 C-2.88376546 24.41882731 -9.79511476 32.59574512 -16 38 C-16.99 38 -17.98 38 -19 38 C-19 37.34 -19 36.68 -19 36 C-21.475 36.495 -21.475 36.495 -24 37 C-24 35.68 -24 34.36 -24 33 C-24.99 33.99 -25.98 34.98 -27 36 C-27.99 35.67 -28.98 35.34 -30 35 C-29.43152344 34.41734375 -28.86304688 33.8346875 -28.27734375 33.234375 C-23.08621467 27.72259187 -19.14198569 22.26395809 -15.60546875 15.56640625 C-13.97008115 12.95217352 -12.63022758 11.57386843 -10 10 C-9.34 10 -8.68 10 -8 10 C-8 10.66 -8 11.32 -8 12 C-4.80037608 9.86691739 -4.54058682 9.42902418 -3.4375 6 C-2.53744405 3.23372636 -2.10771027 2.10771027 0 0 Z " fill="#44EEF8" transform="translate(240,203)"/>
<path d="M0 0 C7.89586967 -0.1374689 15.69149654 0.40413887 23.5625 1 C25.50479492 1.14308594 25.50479492 1.14308594 27.48632812 1.2890625 C30.65778101 1.52311806 33.82897928 1.76017222 37 2 C37 2.66 37 3.32 37 4 C35.7625 4.03867187 35.7625 4.03867187 34.5 4.078125 C25.7643813 4.50710628 17.75323073 6.0265382 9.33398438 8.35693359 C6.73217936 9.07379075 4.1244096 9.76601927 1.515625 10.45703125 C-7.39913723 12.83414972 -16.25557604 15.24403426 -24.953125 18.3359375 C-27 19 -27 19 -29 19 C-28.34 17.68 -27.68 16.36 -27 15 C-24.36 15 -21.72 15 -19 15 C-19 14.34 -19 13.68 -19 13 C-20.65 13 -22.3 13 -24 13 C-24 12.01 -24 11.02 -24 10 C-23.01 10.33 -22.02 10.66 -21 11 C-20.67 10.01 -20.34 9.02 -20 8 C-19.34 8 -18.68 8 -18 8 C-18 8.66 -18 9.32 -18 10 C-17.46890625 9.69320313 -16.9378125 9.38640625 -16.390625 9.0703125 C-13.51859917 7.78447087 -10.85769461 7.34791005 -7.75 6.875 C-6.67234375 6.70742188 -5.5946875 6.53984375 -4.484375 6.3671875 C-3.66453125 6.24601562 -2.8446875 6.12484375 -2 6 C-2.99 5.34 -3.98 4.68 -5 4 C-5 3.34 -5 2.68 -5 2 C-2.525 2.495 -2.525 2.495 0 3 C0 2.01 0 1.02 0 0 Z " fill="#45D7F0" transform="translate(343,258)"/>
<path d="M0 0 C2.76901107 2.76901107 2.33173354 4.62987143 2.5 8.5 C2.72469292 13.5780601 3.41183901 18.30052066 4.45605469 23.25537109 C5.46082071 28.32520039 6.13222549 33.44897236 6.875 38.5625 C8.14217537 47.13403188 9.59771182 55.55708202 11.86865234 63.92407227 C12.75065864 67.27752465 13.28307935 69.70538335 12 73 C11.34 73 10.68 73 10 73 C8.875 65.375 8.875 65.375 10 62 C9.34 62 8.68 62 8 62 C6.71682108 58.15046324 6.93356363 55.05261865 7 51 C6.01 51 5.02 51 4 51 C4 49.68 4 48.36 4 47 C4.66 47 5.32 47 6 47 C5.01 41.555 5.01 41.555 4 36 C3.67 38.31 3.34 40.62 3 43 C1.68 43 0.36 43 -1 43 C-1.12117187 43.90363281 -1.24234375 44.80726563 -1.3671875 45.73828125 C-1.53476563 46.91777344 -1.70234375 48.09726563 -1.875 49.3125 C-2.03742188 50.48425781 -2.19984375 51.65601563 -2.3671875 52.86328125 C-3 56 -3 56 -5 59 C-5.99 59.495 -5.99 59.495 -7 60 C-6.46127556 55.38236192 -5.81996712 50.83800557 -4.94677734 46.26904297 C-2.03967791 30.99476575 -0.89275384 15.50572464 0 0 Z " fill="#3ECBF1" transform="translate(253,109)"/>
<path d="M0 0 C1.22419163 3.93795909 0.48320272 6.16112237 -1 10 C0.32 10 1.64 10 3 10 C3 12.31 3 14.62 3 17 C2.34 17 1.68 17 1 17 C-0.1188496 20.62723821 -0.13815305 24.09617085 -0.25 27.875 C-0.61518326 35.90803671 -2.91225824 42.60537121 -6 50 C-7.39415471 45.89091243 -6.31688475 43.80278015 -4.59375 40 C-3.88800973 37.62276961 -4.21381998 36.31716216 -5 34 C-6.60539721 36.55404101 -7.96642355 38.90766477 -9 41.75 C-9.33 42.4925 -9.66 43.235 -10 44 C-11.485 44.495 -11.485 44.495 -13 45 C-13 44.34 -13 43.68 -13 43 C-14.65 43.66 -16.3 44.32 -18 45 C-15.97853529 39.68972743 -13.47349498 34.61681983 -11.00976562 29.50195312 C-7.52605387 22.18681451 -4.84230235 14.68876485 -2.3125 7 C-2.08755859 6.32066406 -1.86261719 5.64132813 -1.63085938 4.94140625 C-1.08583446 3.29473524 -0.54270986 1.64743545 0 0 Z " fill="#41E5F3" transform="translate(245,170)"/>
<path d="M0 0 C2.93471562 2.84578484 5.66758968 5.75691765 8.3125 8.875 C14.22205428 15.64156757 19.39240061 20.22806121 28 23 C28.99 23.66 29.98 24.32 31 25 C33.04705225 25.59739945 35.11233108 26.13409983 37.1875 26.625 C38.27417969 26.88539063 39.36085938 27.14578125 40.48046875 27.4140625 C41.31191406 27.60742188 42.14335937 27.80078125 43 28 C41.68 28.33 40.36 28.66 39 29 C39 29.66 39 30.32 39 31 C36.69 31 34.38 31 32 31 C31.67 31.66 31.34 32.32 31 33 C29.515 32.505 29.515 32.505 28 32 C28 31.34 28 30.68 28 30 C26.02 29.67 24.04 29.34 22 29 C22 26 22 26 23 24 C20.36 23.67 17.72 23.34 15 23 C15 22.34 15 21.68 15 21 C13.35 21 11.7 21 10 21 C9.731875 20.360625 9.46375 19.72125 9.1875 19.0625 C8.11332248 16.66868314 8.11332248 16.66868314 5 16 C1.45217338 11.09421216 0.42299981 5.92199732 0 0 Z " fill="#56EAF2" transform="translate(288,227)"/>
<path d="M0 0 C-0.33 0.99 -0.66 1.98 -1 3 C3.29 4.32 7.58 5.64 12 7 C12 7.66 12 8.32 12 9 C13.19496094 9.14695312 13.19496094 9.14695312 14.4140625 9.296875 C25.31453362 10.835141 25.31453362 10.835141 30 15 C30 15.66 30 16.32 30 17 C30.94875 16.979375 31.8975 16.95875 32.875 16.9375 C36 17 36 17 38 18 C38 19.32 38 20.64 38 22 C40.475 22.99 40.475 22.99 43 24 C43 25.98 43 27.96 43 30 C41.68 29.67 40.36 29.34 39 29 C38.67 27.35 38.34 25.7 38 24 C37.175 23.7525 36.35 23.505 35.5 23.25 C30.32016124 21.40005759 25.57599631 19.05066421 21 16 C18.67612053 15.60612212 16.34206251 15.26513915 14 15 C14 14.34 14 13.68 14 13 C12.35 13 10.7 13 9 13 C9 12.34 9 11.68 9 11 C7.68 10.67 6.36 10.34 5 10 C5.33 9.01 5.66 8.02 6 7 C5.22914063 6.95101563 4.45828125 6.90203125 3.6640625 6.8515625 C2.66117188 6.77679688 1.65828125 6.70203125 0.625 6.625 C-0.87160156 6.52058594 -0.87160156 6.52058594 -2.3984375 6.4140625 C-5 6 -5 6 -7 4 C-7 3.01 -7 2.02 -7 1 C-4.53721199 -0.231394 -2.7204945 -0.07159196 0 0 Z " fill="#6CFAFC" transform="translate(189,259)"/>
<path d="M0 0 C0.66 0.66 1.32 1.32 2 2 C-0 7 -0 7 -1 9.375 C-2.11840313 12.07424251 -2.11840313 12.07424251 -2.625 15.375 C-4.55835586 20.47202907 -7.77680073 22.72012703 -12 26 C-12.72960937 26.62390625 -13.45921875 27.2478125 -14.2109375 27.890625 C-20.3847461 33.04629674 -25.97065435 35.48833706 -33.9375 36.5 C-35.4534375 36.7475 -35.4534375 36.7475 -37 37 C-37.66 37.99 -38.32 38.98 -39 40 C-37.4221875 40.185625 -37.4221875 40.185625 -35.8125 40.375 C-32.47753625 40.92171537 -30.07197419 41.69441097 -27 43 C-24.67251306 43.68679942 -22.34013344 44.35761043 -20 45 C-19.67 46.65 -19.34 48.3 -19 50 C-17.02 50 -15.04 50 -13 50 C-13 52.31 -13 54.62 -13 57 C-13.33 56.34 -13.66 55.68 -14 55 C-14.66 55 -15.32 55 -16 55 C-17.68762851 53.3545622 -19.3540349 51.68711423 -21 50 C-21.66 49.67 -22.32 49.34 -23 49 C-23 47.68 -23 46.36 -23 45 C-24.27875 44.896875 -25.5575 44.79375 -26.875 44.6875 C-32.66338368 44.04536552 -39.76062254 43.23937746 -44 39 C-44 38.01 -44 37.02 -44 36 C-43.24976563 35.91363281 -42.49953125 35.82726562 -41.7265625 35.73828125 C-35.11903185 34.83120211 -29.94413976 33.3611206 -24.15625 30.0234375 C-22 29 -22 29 -18 29 C-18 28.34 -18 27.68 -18 27 C-17.29875 26.608125 -16.5975 26.21625 -15.875 25.8125 C-8.78740014 21.34423052 -6.2109458 15.79190988 -3.95703125 7.8671875 C-2.97709818 4.93138801 -1.68231098 2.58744168 0 0 Z " fill="#DAFEFC" transform="translate(252,224)"/>
<path d="M0 0 C1.48039971 0.64300189 2.95928782 1.28948499 4.4375 1.9375 C5.26121094 2.29714844 6.08492187 2.65679687 6.93359375 3.02734375 C9 4 9 4 10 5 C10.04092937 7.33297433 10.04241723 9.66705225 10 12 C10.66 12.33 11.32 12.66 12 13 C11.34 14.98 10.68 16.96 10 19 C11.72855926 21.14567913 11.72855926 21.14567913 14 23 C15.32 22.67 16.64 22.34 18 22 C17.34 24.97 16.68 27.94 16 31 C15.43152344 30.27941406 14.86304688 29.55882812 14.27734375 28.81640625 C12.10155162 26.12558957 9.8655064 23.5199006 7.5625 20.9375 C6.82128906 20.10089844 6.08007812 19.26429688 5.31640625 18.40234375 C3.02150871 16.02230667 0.62495722 14.00459696 -2 12 C-1.47731534 9.23723823 -0.89130413 6.6739124 0 4 C0 2.68 0 1.36 0 0 Z " fill="#51EEF6" transform="translate(212,276)"/>
<path d="M0 0 C1.32 0 2.64 0 4 0 C4 0.99 4 1.98 4 3 C4.66 3.33 5.32 3.66 6 4 C5.67 5.65 5.34 7.3 5 9 C1.7 9 -1.6 9 -5 9 C-5 9.66 -5 10.32 -5 11 C-6.7015625 11.2165625 -6.7015625 11.2165625 -8.4375 11.4375 C-11.80777201 11.61171478 -11.80777201 11.61171478 -13 13 C-14.43302714 13.29358162 -15.87163653 13.56017203 -17.3125 13.8125 C-21.3084208 14.64604399 -23.44596762 15.66865342 -26 19 C-26.99 18.67 -27.98 18.34 -29 18 C-29.33 18.99 -29.66 19.98 -30 21 C-32.0625 22.1875 -32.0625 22.1875 -34 23 C-34 20 -34 20 -31.875 17.4375 C-28.88527196 14.90273058 -26.69512856 14.12460434 -23 13 C-22.54238281 12.50113281 -22.08476562 12.00226563 -21.61328125 11.48828125 C-19.51737501 9.55476968 -18.122538 9.51612594 -15.3125 9.3125 C-14.10013672 9.21388672 -14.10013672 9.21388672 -12.86328125 9.11328125 C-12.24839844 9.07589844 -11.63351562 9.03851563 -11 9 C-11 7.02 -11 5.04 -11 3 C-10.01 3.33 -9.02 3.66 -8 4 C-7.67 3.01 -7.34 2.02 -7 1 C-4.69 1.33 -2.38 1.66 0 2 C0 1.34 0 0.68 0 0 Z " fill="#5CF7FC" transform="translate(327,256)"/>
<path d="M0 0 C-3.42833369 2.46136778 -6.65228467 4.3354887 -10.5625 5.9375 C-14.59732189 7.66478161 -17.03517449 9.71465281 -20 13 C-21.03125 13.78375 -22.0625 14.5675 -23.125 15.375 C-26.37718446 18.34438581 -27.54659137 20.98477514 -29 25 C-29.80710908 26.91894302 -30.6201417 28.8354001 -31.4375 30.75 C-34.34554728 37.74858367 -37.19666856 44.78538188 -39.125 52.125 C-39.41375 53.07375 -39.7025 54.0225 -40 55 C-40.99 55.495 -40.99 55.495 -42 56 C-40.40162907 45.50543296 -37.89666586 35.46247592 -33 26 C-32.31471955 24.34089996 -31.64108137 22.67667436 -31 21 C-30.34 21 -29.68 21 -29 21 C-28.62875 19.329375 -28.62875 19.329375 -28.25 17.625 C-27 14 -27 14 -24.9375 12.875 C-23.9784375 12.441875 -23.9784375 12.441875 -23 12 C-22.33652369 9.51599015 -22.33652369 9.51599015 -22 7 C-19.75697866 4.75697866 -18.07396146 4.41743674 -15.0703125 3.64453125 C-11.92885988 2.66653185 -9.04819076 1.18230548 -6.11328125 -0.29296875 C-3.64523838 -1.11869104 -2.41805413 -0.85696275 0 0 Z " fill="#C2FEFC" transform="translate(297,264)"/>
<path d="M0 0 C3.75156685 7.50313369 -1.60423715 20.49215164 -4 28 C-5.69199011 32.30573602 -7.04223998 35.36149332 -11 38 C-11.433125 38.928125 -11.433125 38.928125 -11.875 39.875 C-13 42 -13 42 -15.5 43.9375 C-18.16520639 45.78212817 -18.16520639 45.78212817 -18.9375 48.5625 C-20.44214758 52.01433856 -22.64700302 52.49457279 -26 54 C-26.45117188 54.50917969 -26.90234375 55.01835937 -27.3671875 55.54296875 C-29.59085745 57.5272484 -31.24936078 57.49671174 -34.1875 57.6875 C-35.08855469 57.75324219 -35.98960937 57.81898438 -36.91796875 57.88671875 C-37.94857422 57.94279297 -37.94857422 57.94279297 -39 58 C-39 57.34 -39 56.68 -39 56 C-37.5459375 55.938125 -37.5459375 55.938125 -36.0625 55.875 C-30.90191713 55.13927535 -26.93703365 52.28615309 -23 49 C-21.24677063 46.46811352 -21.24677063 46.46811352 -20 44 C-19.21625 43.443125 -18.4325 42.88625 -17.625 42.3125 C-12.58212983 37.86997152 -10.41227829 31.15736787 -8 25 C-7.34 25 -6.68 25 -6 25 C-5.95101562 24.38511719 -5.90203125 23.77023438 -5.8515625 23.13671875 C-5.77679688 22.32847656 -5.70203125 21.52023438 -5.625 20.6875 C-5.55539063 19.88699219 -5.48578125 19.08648437 -5.4140625 18.26171875 C-5 16 -5 16 -3 13 C-2.57935109 10.9709876 -2.23158524 8.92618275 -1.9375 6.875 C-1.09957924 1.09957924 -1.09957924 1.09957924 0 0 Z " fill="#95FEFD" transform="translate(251,197)"/>
<path d="M0 0 C0.66 0 1.32 0 2 0 C2.33 3.3 2.66 6.6 3 10 C3.66 10 4.32 10 5 10 C5 11.98 5 13.96 5 16 C5.99 16.33 6.98 16.66 8 17 C8.33 18.98 8.66 20.96 9 23 C11.31 23.33 13.62 23.66 16 24 C16 24.66 16 25.32 16 26 C16.99 26 17.98 26 19 26 C19 26.66 19 27.32 19 28 C20.30324219 28.07347656 20.30324219 28.07347656 21.6328125 28.1484375 C22.78523438 28.22320312 23.93765625 28.29796875 25.125 28.375 C26.26195312 28.44460937 27.39890625 28.51421875 28.5703125 28.5859375 C31.95393616 28.99443876 34.81612441 29.80967569 38 31 C38 31.33 38 31.66 38 32 C36.824375 31.979375 35.64875 31.95875 34.4375 31.9375 C31.58225325 31.92739293 29.10294461 32.13455831 26.25 32.5625 C23.20431925 32.97249548 21.83011723 32.91294104 19 32 C17.96875 31.9175 16.9375 31.835 15.875 31.75 C14.92625 31.5025 13.9775 31.255 13 31 C12.71125 30.2575 12.4225 29.515 12.125 28.75 C10.76913119 25.43565403 10.18253154 25.51797234 7.0625 24.125 C3.76045408 22.2612318 3.07626297 21.22028746 1.80859375 17.55859375 C0.50828802 11.72923868 -0.14775994 5.97504272 0 0 Z " fill="#D0FEFC" transform="translate(260,227)"/>
<path d="M0 0 C0.33 0.66 0.66 1.32 1 2 C1.99 2 2.98 2 4 2 C4.33 3.32 4.66 4.64 5 6 C5.99 6 6.98 6 8 6 C8.18175781 7.25296875 8.36351562 8.5059375 8.55078125 9.796875 C8.80408036 11.44800992 9.05802023 13.09904664 9.3125 14.75 C9.43044922 15.575 9.54839844 16.4 9.66992188 17.25 C9.79560547 18.04921875 9.92128906 18.8484375 10.05078125 19.671875 C10.16075439 20.4050293 10.27072754 21.13818359 10.3840332 21.89355469 C10.89191783 24.11218433 10.89191783 24.11218433 12.54101562 25.97265625 C14.32240158 28.44799578 14.35098218 29.74892689 14.29296875 32.765625 C14.28330078 33.65507812 14.27363281 34.54453125 14.26367188 35.4609375 C14.23853516 36.38132812 14.21339844 37.30171875 14.1875 38.25 C14.17396484 39.18585938 14.16042969 40.12171875 14.14648438 41.0859375 C14.11119954 43.39121327 14.06190281 45.6953106 14 48 C11.96684255 44.16612159 10.98091794 40.26588665 10 36.0625 C8.73692781 30.6116545 8.73692781 30.6116545 6.9140625 25.328125 C5.892925 22.72727905 5.59731101 20.46638769 5.375 17.6875 C5.30023438 16.80449219 5.22546875 15.92148437 5.1484375 15.01171875 C5.09945312 14.34785156 5.05046875 13.68398438 5 13 C4.34 13 3.68 13 3 13 C2.86722656 12.39671875 2.73445312 11.7934375 2.59765625 11.171875 C2.42105469 10.37265625 2.24445313 9.5734375 2.0625 8.75 C1.88847656 7.96109375 1.71445313 7.1721875 1.53515625 6.359375 C1.052444 4.23121297 0.53836822 2.11467158 0 0 Z " fill="#D3FEFC" transform="translate(239,281)"/>
<path d="M0 0 C2.10827055 3.16240582 2.33817465 4.50657469 2.625 8.1875 C2.69976562 9.08855469 2.77453125 9.98960937 2.8515625 10.91796875 C2.90054688 11.60503906 2.94953125 12.29210937 3 13 C4.32 12.67 5.64 12.34 7 12 C7.04241723 14.33294775 7.04092937 16.66702567 7 19 C6.67 19.33 6.34 19.66 6 20 C5.76807135 21.51469448 5.58784762 23.03754562 5.4375 24.5625 C5.31181641 25.80193359 5.31181641 25.80193359 5.18359375 27.06640625 C5.12300781 27.70449219 5.06242188 28.34257812 5 29 C7.97065509 28.65772428 7.97065509 28.65772428 11 28 C11.33 27.34 11.66 26.68 12 26 C11.29411026 33.05889737 10.21786614 40.01204964 9 47 C8.34 47 7.68 47 7 47 C4.0834107 38.87243781 3.35520267 30.69173173 2.73486328 22.14599609 C2.32376325 16.71076998 1.6080977 11.51300661 0.40454102 6.19360352 C0 4 0 4 0 0 Z " fill="#42C4ED" transform="translate(245,356)"/>
<path d="M0 0 C0.66 0.33 1.32 0.66 2 1 C-2.38512875 4.31558515 -5.37458159 5.54996653 -11 6 C-11 6.33 -11 6.66 -11 7 C-9.7934375 7.185625 -9.7934375 7.185625 -8.5625 7.375 C-7.2940625 7.684375 -7.2940625 7.684375 -6 8 C-5.67 8.66 -5.34 9.32 -5 10 C-2.88153715 10.68729254 -2.88153715 10.68729254 -0.4375 11.125 C0.38878906 11.29257812 1.21507812 11.46015625 2.06640625 11.6328125 C2.70449219 11.75398438 3.34257812 11.87515625 4 12 C4 12.66 4 13.32 4 14 C4.71027344 14.19335938 5.42054688 14.38671875 6.15234375 14.5859375 C7.07144531 14.84632813 7.99054688 15.10671875 8.9375 15.375 C9.85402344 15.63023437 10.77054688 15.88546875 11.71484375 16.1484375 C14 17 14 17 15 19 C17.01669827 20.13350534 17.01669827 20.13350534 19 21 C16.06317146 22.46841427 14.13175678 21.76696084 11 21 C9.3125 19.5625 9.3125 19.5625 8 18 C5.00703247 16.00468832 3.39565075 15.54356766 -0.0625 14.9375 C-4.81321185 14.09339408 -4.81321185 14.09339408 -7 13 C-7 12.34 -7 11.68 -7 11 C-8.010625 10.896875 -9.02125 10.79375 -10.0625 10.6875 C-14.21218208 9.96295233 -17.21356263 8.77730734 -21 7 C-19 4 -19 4 -17.13647461 3.39990234 C-16.39921143 3.29629395 -15.66194824 3.19268555 -14.90234375 3.0859375 C-14.10119141 2.96476562 -13.30003906 2.84359375 -12.47460938 2.71875 C-11.63736328 2.6053125 -10.80011719 2.491875 -9.9375 2.375 C-8.27946495 2.13614131 -6.62188106 1.89412232 -4.96484375 1.6484375 C-3.86064087 1.49640869 -3.86064087 1.49640869 -2.73413086 1.34130859 C-0.97702454 1.16277277 -0.97702454 1.16277277 0 0 Z " fill="#91FDFC" transform="translate(208,255)"/>
<path d="M0 0 C0.66 0.33 1.32 0.66 2 1 C-1 3 -1 3 -4 3 C-4.33 5.64 -4.66 8.28 -5 11 C-9.61251872 12.27241896 -13.31503575 11.83288253 -18 11 C-17.67 11.99 -17.34 12.98 -17 14 C-21.0927776 14.18603535 -23.41143221 13.84865614 -27 12 C-29.32495277 11.61250787 -31.65851268 11.27017161 -34 11 C-34 10.67 -34 10.34 -34 10 C-33.39639648 9.87471924 -32.79279297 9.74943848 -32.17089844 9.62036133 C-16.71931105 6.44858238 -16.71931105 6.44858238 -2.046875 0.8203125 C-1.03367187 0.41425781 -1.03367187 0.41425781 0 0 Z " fill="#47DAED" transform="translate(199,245)"/>
<path d="M0 0 C0.66 0.99 1.32 1.98 2 3 C2.99 2.01 3.98 1.02 5 0 C5 2.64 5 5.28 5 8 C4.01 8.33 3.02 8.66 2 9 C1.37217059 10.82559267 1.37217059 10.82559267 1 13 C0.41172142 14.5766926 -0.21486769 16.13951532 -0.875 17.6875 C-1.20242187 18.47511719 -1.52984375 19.26273438 -1.8671875 20.07421875 C-3 22 -3 22 -6 23 C-6 22.34 -6 21.68 -6 21 C-7.65 21.66 -9.3 22.32 -11 23 C-9.20761419 18.30789055 -7.07752139 13.79036738 -4.9375 9.25 C-4.57333984 8.47011719 -4.20917969 7.69023437 -3.83398438 6.88671875 C-3.31094727 5.77490234 -3.31094727 5.77490234 -2.77734375 4.640625 C-2.46015381 3.96547852 -2.14296387 3.29033203 -1.81616211 2.59472656 C-1 1 -1 1 0 0 Z " fill="#3CE5F3" transform="translate(238,192)"/>
<path d="M0 0 C4.29 1.32 8.58 2.64 13 4 C12.67 5.32 12.34 6.64 12 8 C9.69 8 7.38 8 5 8 C5 8.99 5 9.98 5 11 C3.3767313 11.6708712 1.75132422 12.33657029 0.125 13 C-0.77992188 13.37125 -1.68484375 13.7425 -2.6171875 14.125 C-5 15 -5 15 -7 15 C-7 15.66 -7 16.32 -7 17 C-13.75 21 -13.75 21 -16 21 C-16.66 22.32 -17.32 23.64 -18 25 C-19.32 25 -20.64 25 -22 25 C-22.061875 25.721875 -22.12375 26.44375 -22.1875 27.1875 C-23.26438217 30.91516905 -25.14774211 32.40703828 -28 35 C-28.928125 35.928125 -29.85625 36.85625 -30.8125 37.8125 C-31.534375 38.534375 -32.25625 39.25625 -33 40 C-32.45702133 35.72926392 -29.83303244 32.8286176 -27.25 29.5625 C-26.81945312 29.00240234 -26.38890625 28.44230469 -25.9453125 27.86523438 C-18.20822915 17.93906607 -18.20822915 17.93906607 -13 16.4375 C-10.13782956 15.50127603 -8.83545496 14.86354802 -6.4375 12.875 C-4 11 -4 11 -0.3125 10.5 C0.780625 10.335 1.87375 10.17 3 10 C4.46804363 8.14853436 4.46804363 8.14853436 5 6 C5.33 5.34 5.66 4.68 6 4 C4.02 3.34 2.04 2.68 0 2 C0 1.34 0 0.68 0 0 Z " fill="#84FEFC" transform="translate(302,256)"/>
<path d="M0 0 C0.99 0.33 1.98 0.66 3 1 C2.34 1 1.68 1 1 1 C1 1.99 1 2.98 1 4 C-4.82748619 6.42811925 -10.7757491 6.61727907 -17 7 C-16.34 8.65 -15.68 10.3 -15 12 C-16.99954746 12.04254356 -19.00041636 12.04080783 -21 12 C-21.33 11.67 -21.66 11.34 -22 11 C-24.34987262 10.76472227 -26.70556039 10.58613583 -29.0625 10.4375 C-30.35285156 10.35371094 -31.64320313 10.26992188 -32.97265625 10.18359375 C-33.97167969 10.12300781 -34.97070312 10.06242187 -36 10 C-36 9.01 -36 8.02 -36 7 C-34.453125 6.814375 -34.453125 6.814375 -32.875 6.625 C-29.37883154 6.06110186 -26.31602373 5.21317941 -23 4 C-23 4.66 -23 5.32 -23 6 C-21.35 5.67 -19.7 5.34 -18 5 C-18 4.34 -18 3.68 -18 3 C-17.071875 3.020625 -16.14375 3.04125 -15.1875 3.0625 C-11.97713989 3.15769604 -11.97713989 3.15769604 -9 2 C-9 2.66 -9 3.32 -9 4 C-8.443125 3.67 -7.88625 3.34 -7.3125 3 C-4.69715478 1.8690399 -2.8193354 1.84337026 0 2 C0 1.34 0 0.68 0 0 Z " fill="#61F2FC" transform="translate(199,253)"/>
<path d="M0 0 C2 2 2 2 2.1953125 4.1640625 C2.17210937 4.97617187 2.14890625 5.78828125 2.125 6.625 C2.10695312 7.44226563 2.08890625 8.25953125 2.0703125 9.1015625 C2.03550781 10.04128906 2.03550781 10.04128906 2 11 C2.66 11 3.32 11 4 11 C4.67364661 13.08108685 5.33866798 15.1649671 6 17.25 C6.37125 18.41015625 6.7425 19.5703125 7.125 20.765625 C8 24 8 24 8 28 C8.66 28 9.32 28 10 28 C10.66 32.29 11.32 36.58 12 41 C12.66 41 13.32 41 14 41 C14 43.97 14 46.94 14 50 C12 47 12 47 12 45 C11.34 45 10.68 45 10 45 C8.82428549 41.32589215 8.92633254 37.83070817 9 34 C7.68 33.67 6.36 33.34 5 33 C5.33 32.401875 5.66 31.80375 6 31.1875 C7.20787988 28.94613529 7.20787988 28.94613529 7 26 C6.34 26 5.68 26 5 26 C3.54815522 21.46298506 2.76490804 17.81938524 3 13 C2.01 13 1.02 13 0 13 C0 12.34 0 11.68 0 11 C-0.66 11 -1.32 11 -2 11 C-1.85892253 9.54119891 -1.71197585 8.08296449 -1.5625 6.625 C-1.48128906 5.81289063 -1.40007812 5.00078125 -1.31640625 4.1640625 C-1 2 -1 2 0 0 Z " fill="#73FBFC" transform="translate(236,292)"/>
<path d="M0 0 C0.66 0.33 1.32 0.66 2 1 C2.4140625 3.50390625 2.4140625 3.50390625 2.625 6.5625 C2.69976562 7.57441406 2.77453125 8.58632812 2.8515625 9.62890625 C2.90054687 10.41136719 2.94953125 11.19382813 3 12 C2.34 12 1.68 12 1 12 C1.33 13.65 1.66 15.3 2 17 C1.34 17 0.68 17 0 17 C0 17.99 0 18.98 0 20 C-1.32 20 -2.64 20 -4 20 C-4.66 23.63 -5.32 27.26 -6 31 C-6.99 31.33 -7.98 31.66 -9 32 C-8.48146768 26.9875209 -7.62530765 22.78031662 -6 18 C-5.2648338 14.67924926 -4.62117685 11.34378178 -4 8 C-2.68 8 -1.36 8 0 8 C0 5.36 0 2.72 0 0 Z " fill="#3BDCF3" transform="translate(256,144)"/>
<path d="M0 0 C-4.64849515 2.3992233 -8.91086074 2.19957409 -14 2 C-14.33 3.32 -14.66 4.64 -15 6 C-14.01 6.33 -13.02 6.66 -12 7 C-22.71886534 5.9360366 -33.3743549 4.79319684 -44 3 C-44 2.67 -44 2.34 -44 2 C-39.08517141 1.24301531 -34.20282248 0.73739733 -29.23828125 0.4296875 C-28.16866402 0.36166428 -28.16866402 0.36166428 -27.07743835 0.29226685 C-25.58256285 0.19837831 -24.08759046 0.10602091 -22.5925293 0.01513672 C-20.30796449 -0.12527876 -18.02415983 -0.27536505 -15.74023438 -0.42578125 C-14.28128657 -0.5162169 -12.82230318 -0.60608068 -11.36328125 -0.6953125 C-10.04626221 -0.77797363 -8.72924316 -0.86063477 -7.37231445 -0.94580078 C-4.59785808 -0.99039133 -2.59853343 -0.87592866 0 0 Z " fill="#48C3F4" transform="translate(162,257)"/>
<path d="M0 0 C9.65625 5.71875 9.65625 5.71875 12 9 C12.6091895 11.70230216 12.81458489 14.2187733 13 17 C13.33 17 13.66 17 14 17 C14.33 21.95 14.66 26.9 15 32 C13 28 13 28 13 26 C12.34 26 11.68 26 11 26 C10.67 23.03 10.34 20.06 10 17 C8.68 17 7.36 17 6 17 C5.85304687 15.84371094 5.85304687 15.84371094 5.703125 14.6640625 C5.55359375 13.66117187 5.4040625 12.65828125 5.25 11.625 C5.11078125 10.62726563 4.9715625 9.62953125 4.828125 8.6015625 C4.25613111 5.85438953 4.25613111 5.85438953 1.921875 4.6484375 C1.28765625 4.43445313 0.6534375 4.22046875 0 4 C0 2.68 0 1.36 0 0 Z " fill="#8FFEFC" transform="translate(227,277)"/>
<path d="M0 0 C9.36749815 -0.1820896 18.6587308 0.38673965 28 1 C28 1.66 28 2.32 28 3 C26.71029297 3.05607422 26.71029297 3.05607422 25.39453125 3.11328125 C17.86813059 3.5318706 10.8528431 4.51677536 3.546875 6.37890625 C1 7 1 7 -1 7 C-0.67 4.69 -0.34 2.38 0 0 Z " fill="#45CCEE" transform="translate(352,259)"/>
<path d="M0 0 C0.25 6.625 0.25 6.625 -2 10 C-2.34541851 12.33157492 -2.67794257 14.66508361 -3 17 C-4.0625 19.9375 -4.0625 19.9375 -5 22 C-5.66 22 -6.32 22 -7 22 C-7 19.69 -7 17.38 -7 15 C-8.32 15 -9.64 15 -11 15 C-10.01 10.71 -9.02 6.42 -8 2 C-7.67 2 -7.34 2 -7 2 C-7.33 4.97 -7.66 7.94 -8 11 C-7.34 10.67 -6.68 10.34 -6 10 C-5.38727695 7.91193 -5.38727695 7.91193 -5 5.5 C-4.5625 3.03125 -4.5625 3.03125 -4 1 C-2 0 -2 0 0 0 Z " fill="#4FEEFA" transform="translate(255,165)"/>
<path d="M0 0 C0.33 0 0.66 0 1 0 C1.1959375 0.83660156 1.391875 1.67320312 1.59375 2.53515625 C3.59413794 10.32114898 6.20412438 16.89184206 10.18164062 23.84790039 C12.2566993 27.48575012 13.81181007 30.98220313 15 35 C13.35 34.34 11.7 33.68 10 33 C10 32.34 10 31.68 10 31 C9.34 30.67 8.68 30.34 8 30 C8.66 30 9.32 30 10 30 C10 29.01 10 28.02 10 27 C9.01 27.33 8.02 27.66 7 28 C6.32404685 26.58774074 5.65959941 25.16997095 5 23.75 C4.62875 22.96109375 4.2575 22.1721875 3.875 21.359375 C2.7116655 18.22252661 3 15.31233823 3 12 C0.525 11.01 0.525 11.01 -2 10 C-2 8.68 -2 7.36 -2 6 C-1.34 6 -0.68 6 0 6 C0 4.02 0 2.04 0 0 Z " fill="#4BDAED" transform="translate(266,182)"/>
<path d="M0 0 C1.65 0 3.3 0 5 0 C3.70181457 6.40533252 -0.66557605 12.23213366 -5 17 C-8 18 -8 18 -11 17 C-10.34 15.35 -9.68 13.7 -9 12 C-9.99 11.67 -10.98 11.34 -12 11 C-11.030625 10.71125 -10.06125 10.4225 -9.0625 10.125 C-5.89335797 9.35785318 -5.89335797 9.35785318 -5 7 C-4.67 8.32 -4.34 9.64 -4 11 C-2.03698408 7.49461443 -1.04097612 3.86648272 0 0 Z " fill="#4FF7FB" transform="translate(233,220)"/>
<path d="M0 0 C0.66 0 1.32 0 2 0 C2 0.66 2 1.32 2 2 C2.86625 1.505 2.86625 1.505 3.75 1 C6 0 6 0 10 0 C10 0.99 10 1.98 10 3 C11.98 3 13.96 3 16 3 C13.22822472 4.45945023 10.50890386 5.56440261 7.5234375 6.5078125 C6.688125 6.77207031 5.8528125 7.03632813 4.9921875 7.30859375 C4.12851562 7.57800781 3.26484375 7.84742188 2.375 8.125 C1.50359375 8.40214844 0.6321875 8.67929687 -0.265625 8.96484375 C-6.74203356 11 -6.74203356 11 -9 11 C-8.34 9.68 -7.68 8.36 -7 7 C-4.36 7 -1.72 7 1 7 C1 6.34 1 5.68 1 5 C-0.65 5 -2.3 5 -4 5 C-4 4.01 -4 3.02 -4 2 C-3.01 2.33 -2.02 2.66 -1 3 C-0.67 2.01 -0.34 1.02 0 0 Z " fill="#43E0F1" transform="translate(323,266)"/>
<path d="M0 0 C2.76901107 2.76901107 2.33173354 4.62987143 2.5 8.5 C2.794969 13.74508508 3.44659829 18.61941011 4.58984375 23.734375 C5.2165764 27.19632676 5.12996656 30.4909028 5 34 C4.67 34 4.34 34 4 34 C3.67 31.69 3.34 29.38 3 27 C2.01 27 1.02 27 0 27 C-0.33 27 -0.66 27 -1 27 C-1.15178302 17.94361322 -0.69037426 9.02417777 0 0 Z " fill="#3694CD" transform="translate(253,109)"/>
<path d="M0 0 C0.66 0 1.32 0 2 0 C4.10575375 5.52760359 5.37851209 10.06997733 5 16 C5.66 16 6.32 16 7 16 C7.12117188 16.74765625 7.24234375 17.4953125 7.3671875 18.265625 C7.53476562 19.25046875 7.70234375 20.2353125 7.875 21.25 C8.03742188 22.22453125 8.19984375 23.1990625 8.3671875 24.203125 C8.95253092 26.79019837 9.80985921 28.65938979 11 31 C11.125 34.25 11.125 34.25 11 37 C10.01 37 9.02 37 8 37 C7.90203125 36.47535156 7.8040625 35.95070312 7.703125 35.41015625 C6.88263662 31.15917769 5.99643339 26.93422657 4.9765625 22.7265625 C4.79577148 21.97882568 4.61498047 21.23108887 4.42871094 20.46069336 C4.06450844 18.96550401 3.69549931 17.47147586 3.32128906 15.97875977 C2.41342873 12.24735085 1.77335444 8.84541967 2 5 C1.34 5 0.68 5 0 5 C0 3.35 0 1.7 0 0 Z " fill="#97FEFD" transform="translate(255,195)"/>
<path d="M0 0 C2.64 0 5.28 0 8 0 C8 0.66 8 1.32 8 2 C8.639375 1.608125 9.27875 1.21625 9.9375 0.8125 C14.52550675 -0.40472628 17.68567522 1.33580341 22 3 C23.60183383 3.52796443 25.20595758 4.04904163 26.8125 4.5625 C29.6912766 5.49063016 32.31914932 6.59631863 35 8 C34.01 8 33.02 8 32 8 C32 8.66 32 9.32 32 10 C21.29373827 7.14165378 10.650808 4.0568605 0 1 C0 0.67 0 0.34 0 0 Z " fill="#3FCAEF" transform="translate(154,264)"/>
<path d="M0 0 C2.97 0 5.94 0 9 0 C9.66 1.32 10.32 2.64 11 4 C11.99 4.33 12.98 4.66 14 5 C14.33 4.34 14.66 3.68 15 3 C15.99 3 16.98 3 18 3 C18.33 4.32 18.66 5.64 19 7 C19.639375 7.12375 20.27875 7.2475 20.9375 7.375 C21.9584375 7.684375 21.9584375 7.684375 23 8 C23.33 8.66 23.66 9.32 24 10 C23.67 10.99 23.34 11.98 23 13 C18.60093995 10.89371689 14.42658492 8.38385459 10.22070312 5.921875 C6.89102988 3.99662704 3.6156765 2.31728632 0 1 C0 0.67 0 0.34 0 0 Z " fill="#4DE3F0" transform="translate(187,274)"/>
<path d="M0 0 C2.10827055 3.16240582 2.33817465 4.50657469 2.625 8.1875 C2.69976562 9.08855469 2.77453125 9.98960937 2.8515625 10.91796875 C2.90054688 11.60503906 2.94953125 12.29210937 3 13 C4.32 12.67 5.64 12.34 7 12 C7.04241723 14.33294775 7.04092937 16.66702567 7 19 C6.67 19.33 6.34 19.66 6 20 C5.91330568 21.4887186 5.89296506 22.981445 5.90234375 24.47265625 C5.90556641 25.37177734 5.90878906 26.27089844 5.91210938 27.19726562 C5.92048828 28.14279297 5.92886719 29.08832031 5.9375 30.0625 C5.94201172 31.01189453 5.94652344 31.96128906 5.95117188 32.93945312 C5.9629989 35.29303065 5.97947975 37.64648477 6 40 C4.28545461 36.98479492 3.68709839 34.59701107 3.4375 31.1484375 C3.36273438 30.21386719 3.28796875 29.27929688 3.2109375 28.31640625 C3.14132813 27.34574219 3.07171875 26.37507813 3 25.375 C2.52083105 18.85297813 1.84986557 12.56395986 0.40234375 6.17822266 C0 4 0 4 0 0 Z " fill="#36AAC2" transform="translate(245,356)"/>
<path d="M0 0 C-2 2 -2 2 -4.625 2.125 C-5.40875 2.08375 -6.1925 2.0425 -7 2 C-7 2.66 -7 3.32 -7 4 C-7.99 4.66 -8.98 5.32 -10 6 C-8.63016497 9.16115776 -8.0109362 9.9927092 -5 12 C-7.97 11.67 -10.94 11.34 -14 11 C-14.33 10.01 -14.66 9.02 -15 8 C-16.65 8 -18.3 8 -20 8 C-20 7.01 -20 6.02 -20 5 C-19.09507812 4.83564453 -19.09507812 4.83564453 -18.171875 4.66796875 C-13.20553307 3.77793986 -13.20553307 3.77793986 -8.875 1.375 C-6.0287863 -0.71222338 -3.41600267 -0.19707708 0 0 Z " fill="#ADFEFD" transform="translate(217,255)"/>
<path d="M0 0 C0.99 0.66 1.98 1.32 3 2 C4.32 2 5.64 2 7 2 C6.34 3.65 5.68 5.3 5 7 C5.99 7 6.98 7 8 7 C7.67 8.32 7.34 9.64 7 11 C6.01 11 5.02 11 4 11 C4 10.34 4 9.68 4 9 C2.35 9.33 0.7 9.66 -1 10 C-1 8.68 -1 7.36 -1 6 C-1.99 6.99 -2.98 7.98 -4 9 C-4.99 8.67 -5.98 8.34 -7 8 C-4.69 5.36 -2.38 2.72 0 0 Z " fill="#44EFF6" transform="translate(217,230)"/>
<path d="M0 0 C0.99 0 1.98 0 3 0 C1.4480198 18.8279703 1.4480198 18.8279703 -2 24 C-2.66 24.33 -3.32 24.66 -4 25 C-3.33182164 19.29129167 -2.46165521 13.65490487 -1.4375 8 C-1.29892578 7.22527344 -1.16035156 6.45054687 -1.01757812 5.65234375 C-0.68023879 3.76789645 -0.34038635 1.8838993 0 0 Z " fill="#4BD3EB" transform="translate(250,144)"/>
<path d="M0 0 C1.40444502 2.80889004 0.73665437 4.5800738 0.22265625 7.6640625 C0.03896484 8.78554688 -0.14472656 9.90703125 -0.33398438 11.0625 C-0.53314453 12.238125 -0.73230469 13.41375 -0.9375 14.625 C-1.13279297 15.80835938 -1.32808594 16.99171875 -1.52929688 18.2109375 C-2.01380584 21.14162586 -2.50428236 24.07119025 -3 27 C-3.33 27 -3.66 27 -4 27 C-4 25.02 -4 23.04 -4 21 C-4.66 21 -5.32 21 -6 21 C-5.88544319 19.08268082 -5.75793742 17.1661325 -5.625 15.25 C-5.55539063 14.18265625 -5.48578125 13.1153125 -5.4140625 12.015625 C-5.0271777 9.19793568 -4.44313834 7.4169634 -3 5 C-2.34 5 -1.68 5 -1 5 C-0.67 3.35 -0.34 1.7 0 0 Z " fill="#48DAF4" transform="translate(261,352)"/>
<path d="M0 0 C0.66 0 1.32 0 2 0 C2.0270043 1.45823212 2.04639787 2.91660675 2.0625 4.375 C2.07410156 5.18710937 2.08570313 5.99921875 2.09765625 6.8359375 C2 9 2 9 1 11 C-2.0625 11.625 -2.0625 11.625 -5 12 C-5 9.03 -5 6.06 -5 3 C-4.34 2.67 -3.68 2.34 -3 2 C-2.01 2.33 -1.02 2.66 0 3 C0 2.01 0 1.02 0 0 Z " fill="#4ADEF9" transform="translate(255,373)"/>
<path d="M0 0 C1.43739513 -0.02712066 2.87493863 -0.04645067 4.3125 -0.0625 C5.51326172 -0.07990234 5.51326172 -0.07990234 6.73828125 -0.09765625 C9 0 9 0 12 1 C12 1.66 12 2.32 12 3 C13.299375 2.938125 13.299375 2.938125 14.625 2.875 C18.12358468 3.00457721 20.74551597 3.76019656 24 5 C24 5.66 24 6.32 24 7 C17.51491367 6.76157771 12.40676111 6.14766681 6.7265625 2.921875 C4.54776383 1.75853454 2.43995837 1.3049948 0 1 C0 0.67 0 0.34 0 0 Z " fill="#3CDAF0" transform="translate(167,264)"/>
<path d="M0 0 C-0.33 0.99 -0.66 1.98 -1 3 C3.29 4.32 7.58 5.64 12 7 C12 7.66 12 8.32 12 9 C12.66 9.33 13.32 9.66 14 10 C13.01 10 12.02 10 11 10 C11 9.34 11 8.68 11 8 C10.03900391 7.92652344 10.03900391 7.92652344 9.05859375 7.8515625 C3.78803915 7.3959855 -0.96986288 6.6402621 -6 5 C-6.33 3.68 -6.66 2.36 -7 1 C-4.53721199 -0.231394 -2.7204945 -0.07159196 0 0 Z " fill="#76F8FC" transform="translate(189,259)"/>
<path d="M0 0 C5.1115835 3.40772233 6.39802626 9.2440711 8 15 C8.3675716 19.04777015 8.32822576 22.95188233 8 27 C5.85394785 23.29231169 4.97593661 19.31616933 4 15.1875 C2.77418289 10.0879093 1.4740533 5.03415525 0 0 Z " fill="#BFFDFC" transform="translate(245,302)"/>
<path d="M0 0 C4.88927054 7.3339058 4.23310637 15.50456802 4 24 C3.67 24 3.34 24 3 24 C0.26022667 15.86222087 -0.36741339 8.55937129 0 0 Z " fill="#D0FEFC" transform="translate(255,214)"/>
<path d="M0 0 C0.66 0 1.32 0 2 0 C2.33 2.31 2.66 4.62 3 7 C3.66 7 4.32 7 5 7 C5.05389087 8.95803507 5.09274217 10.91648909 5.125 12.875 C5.14820313 13.96554688 5.17140625 15.05609375 5.1953125 16.1796875 C5 19 5 19 3 21 C2.49576443 18.25071558 1.99646574 15.50068857 1.5 12.75 C1.35691406 11.97269531 1.21382813 11.19539062 1.06640625 10.39453125 C0.93105469 9.64042969 0.79570312 8.88632813 0.65625 8.109375 C0.46772461 7.07248535 0.46772461 7.07248535 0.27539062 6.01464844 C0 4 0 4 0 0 Z " fill="#3EE3F3" transform="translate(258,164)"/>
<path d="M0 0 C7.26 0.33 14.52 0.66 22 1 C22 1.66 22 2.32 22 3 C21.07058594 3.06058594 20.14117187 3.12117188 19.18359375 3.18359375 C10.05853115 3.79571552 10.05853115 3.79571552 1 5 C1.99 4.67 2.98 4.34 4 4 C4 3.01 4 2.02 4 1 C2.68 0.67 1.36 0.34 0 0 Z " fill="#4098D2" transform="translate(358,259)"/>
<path d="M0 0 C-0.33 3.63 -0.66 7.26 -1 11 C-1.99 11 -2.98 11 -4 11 C-4 8.36 -4 5.72 -4 3 C-5.32 3.33 -6.64 3.66 -8 4 C-7.67 2.68 -7.34 1.36 -7 0 C-3.98968256 -0.93423645 -3.13349732 -1.04449911 0 0 Z " fill="#59EEFB" transform="translate(256,365)"/>
<path d="M0 0 C0.66 0 1.32 0 2 0 C2.69888677 2.74755487 3.3843988 5.49731197 4.0625 8.25 C4.26166016 9.02730469 4.46082031 9.80460938 4.66601562 10.60546875 C4.84970703 11.35957031 5.03339844 12.11367187 5.22265625 12.890625 C5.39547119 13.58188477 5.56828613 14.27314453 5.74633789 14.98535156 C6.03156637 17.25070809 5.68076195 18.8368312 5 21 C4.34 21 3.68 21 3 21 C1.875 13.375 1.875 13.375 3 10 C2.34 10 1.68 10 1 10 C-0.1577506 6.52674819 -0.06866652 3.63932552 0 0 Z " fill="#40CDEB" transform="translate(260,161)"/>
<path d="M0 0 C0.99 0 1.98 0 3 0 C3 0.66 3 1.32 3 2 C4.30324219 2.07347656 4.30324219 2.07347656 5.6328125 2.1484375 C7.36144531 2.26058594 7.36144531 2.26058594 9.125 2.375 C10.26195312 2.44460937 11.39890625 2.51421875 12.5703125 2.5859375 C15.95393616 2.99443876 18.81612441 3.80967569 22 5 C22 5.33 22 5.66 22 6 C15.00543411 6.35299678 8.3272614 6.37917477 2 3 C1.34 2.01 0.68 1.02 0 0 Z " fill="#C2FEFD" transform="translate(276,253)"/>
<path d="M0 0 C0.33 0 0.66 0 1 0 C1.26554687 0.95261719 1.53109375 1.90523437 1.8046875 2.88671875 C2.15789062 4.14097656 2.51109375 5.39523438 2.875 6.6875 C3.22304688 7.92886719 3.57109375 9.17023438 3.9296875 10.44921875 C4.81557556 13.38816854 5.80201451 16.17771887 7 19 C6.34 19 5.68 19 5 19 C3.5393715 16.35261084 3 15.10551666 3 12 C0.525 11.01 0.525 11.01 -2 10 C-2 8.68 -2 7.36 -2 6 C-1.34 6 -0.68 6 0 6 C0 4.02 0 2.04 0 0 Z " fill="#3FC9E0" transform="translate(266,182)"/>
<path d="M0 0 C1.32 0 2.64 0 4 0 C3.01 3.96 2.02 7.92 1 12 C-0.32 12 -1.64 12 -3 12 C-3 10.35 -3 8.7 -3 7 C-2.34 7 -1.68 7 -1 7 C-0.67 4.69 -0.34 2.38 0 0 Z " fill="#56E8F0" transform="translate(263,333)"/>
<path d="M0 0 C1.4540625 0.0309375 1.4540625 0.0309375 2.9375 0.0625 C2.6075 2.3725 2.2775 4.6825 1.9375 7.0625 C-0.0425 7.0625 -2.0225 7.0625 -4.0625 7.0625 C-4.10504356 5.06295254 -4.10330783 3.06208364 -4.0625 1.0625 C-3.0625 0.0625 -3.0625 0.0625 0 0 Z " fill="#4DE4FA" transform="translate(349.0625,258.9375)"/>
<path d="M0 0 C0.99 0 1.98 0 3 0 C2.67 0.99 2.34 1.98 2 3 C1.34 3 0.68 3 0 3 C-0.66 6.96 -1.32 10.92 -2 15 C-2.99 15.33 -3.98 15.66 -5 16 C-3.94230769 3.94230769 -3.94230769 3.94230769 0 0 Z " fill="#36D9ED" transform="translate(252,160)"/>
<path d="M0 0 C2 2 2 2 2.125 5.625 C2.08375 6.73875 2.0425 7.8525 2 9 C1.01 9.495 1.01 9.495 0 10 C-0.36526253 12.32854865 -0.69350684 14.66298962 -1 17 C-1.62256028 19.01416562 -2.27566653 21.02015519 -3 23 C-3.66 22.67 -4.32 22.34 -5 22 C-3.35 14.74 -1.7 7.48 0 0 Z " fill="#7CFBFC" transform="translate(261,321)"/>
<path d="M0 0 C0.33 0 0.66 0 1 0 C1.33 2.97 1.66 5.94 2 9 C2.33 6.36 2.66 3.72 3 1 C6.61861111 6.42791666 6.11082539 12.68295272 6 19 C5.67 19 5.34 19 5 19 C4.67 16.69 4.34 14.38 4 12 C3.01 12 2.02 12 1 12 C0.67 12 0.34 12 0 12 C0 8.04 0 4.08 0 0 Z " fill="#278CBB" transform="translate(252,124)"/>
<path d="M0 0 C-4.64849515 2.3992233 -8.91086074 2.19957409 -14 2 C-14.33 3.32 -14.66 4.64 -15 6 C-14.01 6.33 -13.02 6.66 -12 7 C-14.64 6.67 -17.28 6.34 -20 6 C-19.34 4.68 -18.68 3.36 -18 2 C-18.66 1.67 -19.32 1.34 -20 1 C-17.41765641 0.63667026 -14.83460218 0.28405133 -12.25 -0.0625 C-11.52039063 -0.16626953 -10.79078125 -0.27003906 -10.0390625 -0.37695312 C-6.3892704 -0.85806208 -3.52327086 -1.04532842 0 0 Z " fill="#3EB6DE" transform="translate(162,257)"/>
<path d="M0 0 C1.62433191 2.50076998 2.07333427 3.58982529 1.5390625 6.578125 C1.23742187 7.45984375 0.93578125 8.3415625 0.625 9.25 C0.32851562 10.14203125 0.03203125 11.0340625 -0.2734375 11.953125 C-0.51320312 12.62859375 -0.75296875 13.3040625 -1 14 C-1.66 13.01 -2.32 12.02 -3 11 C-3.33 11.99 -3.66 12.98 -4 14 C-4.66 14 -5.32 14 -6 14 C-4.7023817 8.70139194 -2.84984298 4.65474354 0 0 Z " fill="#44CBE2" transform="translate(238,192)"/>
<path d="M0 0 C1.3357457 3.77371512 0.72408671 6.85831347 0.0625 10.75 C-0.13214844 11.92046875 -0.32679688 13.0909375 -0.52734375 14.296875 C-0.76130859 15.63492188 -0.76130859 15.63492188 -1 17 C-1.66 16.67 -2.32 16.34 -3 16 C-3.33 16.99 -3.66 17.98 -4 19 C-4.66 19 -5.32 19 -6 19 C-4.12275039 12.62267685 -2.14328358 6.29304541 0 0 Z " fill="#43C4DA" transform="translate(245,170)"/>
<path d="M0 0 C0.27908468 5.42121998 -0.57278947 9.37857235 -2.5 14.4375 C-2.73847656 15.07365234 -2.97695312 15.70980469 -3.22265625 16.36523438 C-3.80490924 17.91402732 -4.40101069 19.45760253 -5 21 C-6.08894113 17.76899703 -5.94537848 16.2464691 -4.5 13.1875 C-2.76280899 8.99780404 -2.99643859 6.37917708 -4 2 C-1 0 -1 0 0 0 Z " fill="#50F4FB" transform="translate(244,199)"/>
<path d="M0 0 C0 0.33 0 0.66 0 1 C-1.65 1 -3.3 1 -5 1 C-5 1.66 -5 2.32 -5 3 C-4.01 3.33 -3.02 3.66 -2 4 C-7.61 3.34 -13.22 2.68 -19 2 C-19 1.67 -19 1.34 -19 1 C-12.65758005 -0.15316726 -6.43311296 -0.09507063 0 0 Z " fill="#3386BB" transform="translate(137,258)"/>
<path d="M0 0 C1.27230469 0.21462891 1.27230469 0.21462891 2.5703125 0.43359375 C6.00192112 1.00031727 9.43696464 1.5362701 12.875 2.0625 C14.02742188 2.23910156 15.17984375 2.41570312 16.3671875 2.59765625 C17.23601562 2.73042969 18.10484375 2.86320313 19 3 C19 3.99 19 4.98 19 6 C16.0183929 5.38517411 13.04009328 4.75872174 10.0625 4.125 C9.21236328 3.95097656 8.36222656 3.77695313 7.48632812 3.59765625 C6.67744141 3.42363281 5.86855469 3.24960938 5.03515625 3.0703125 C4.2862915 2.91320801 3.53742676 2.75610352 2.76586914 2.59423828 C1 2 1 2 0 0 Z " fill="#80FDFC" transform="translate(283,250)"/>
<path d="M0 0 C-0.25 1.875 -0.25 1.875 -1 4 C-2.9375 5.0625 -2.9375 5.0625 -5 6 C-5.99 7.485 -5.99 7.485 -7 9 C-7.66 9 -8.32 9 -9 9 C-9 8.01 -9 7.02 -9 6 C-8.34 6 -7.68 6 -7 6 C-7 4.68 -7 3.36 -7 2 C-4.35261084 0.5393715 -3.10551666 0 0 0 Z " fill="#48ECF7" transform="translate(302,276)"/>
<path d="M0 0 C4.40114397 0.50298788 6.71195019 2.08772731 10 5 C9.030625 5.12375 8.06125 5.2475 7.0625 5.375 C5.5465625 5.684375 5.5465625 5.684375 4 6 C3.67 6.66 3.34 7.32 3 8 C2.01 7.67 1.02 7.34 0 7 C0.66 5.68 1.32 4.36 2 3 C1.34 2.67 0.68 2.34 0 2 C0 1.34 0 0.68 0 0 Z " fill="#4AD8E5" transform="translate(309,248)"/>
<path d="M0 0 C5.63281599 -0.2396943 10.54538831 0.61470179 16 2 C15.01 2.33 14.02 2.66 13 3 C13 3.66 13 4.32 13 5 C11.20620902 4.55005243 9.41501072 4.08975857 7.625 3.625 C6.62726563 3.36976563 5.62953125 3.11453125 4.6015625 2.8515625 C2 2 2 2 0 0 Z " fill="#3CC0DA" transform="translate(173,269)"/>
<path d="M0 0 C6.75 -0.125 6.75 -0.125 9 1 C9 1.66 9 2.32 9 3 C5.77208445 5.1519437 4.71599191 5.20086443 1 5 C0.67 3.35 0.34 1.7 0 0 Z " fill="#4EE1FB" transform="translate(150,258)"/>
<path d="M0 0 C2.15059309 3.53186832 2.3797728 6.66287993 2.625 10.75 C2.69976562 11.92046875 2.77453125 13.0909375 2.8515625 14.296875 C2.90054687 15.18890625 2.94953125 16.0809375 3 17 C1.68 16.67 0.36 16.34 -1 16 C-1 14.68 -1 13.36 -1 12 C-0.34 12 0.32 12 1 12 C0.67 11.01 0.34 10.02 0 9 C-0.06740865 7.43881572 -0.08514456 5.8749748 -0.0625 4.3125 C-0.05347656 3.50425781 -0.04445313 2.69601563 -0.03515625 1.86328125 C-0.02355469 1.24839844 -0.01195312 0.63351563 0 0 Z " fill="#39B4D5" transform="translate(258,144)"/>
<path d="M0 0 C3.63 0.33 7.26 0.66 11 1 C11 1.33 11 1.66 11 2 C9.02 2 7.04 2 5 2 C5 3.32 5 4.64 5 6 C4.01 6 3.02 6 2 6 C2 5.34 2 4.68 2 4 C1.01 3.67 0.02 3.34 -1 3 C-0.67 2.01 -0.34 1.02 0 0 Z " fill="#49DFF4" transform="translate(331,256)"/>
<path d="M0 0 C0.66 0.33 1.32 0.66 2 1 C2.51953125 3.3984375 2.51953125 3.3984375 2.8125 6.375 C2.92207031 7.35210937 3.03164063 8.32921875 3.14453125 9.3359375 C3 12 3 12 1.63671875 13.8515625 C0 15 0 15 -2 15 C-1.67 13.35 -1.34 11.7 -1 10 C-0.34 10 0.32 10 1 10 C0.67 6.7 0.34 3.4 0 0 Z " fill="#4BE3FC" transform="translate(256,144)"/>
<path d="M0 0 C1.3609623 2.7219246 0.70366248 4.1831957 0.0625 7.125 C-0.13214844 8.03507812 -0.32679688 8.94515625 -0.52734375 9.8828125 C-0.68332031 10.58148438 -0.83929688 11.28015625 -1 12 C-1.99 12.33 -2.98 12.66 -4 13 C-4.93065133 10.39417629 -5.14917407 9.35801776 -4.0625 6.75 C-3.5365625 5.88375 -3.5365625 5.88375 -3 5 C-2.34 5 -1.68 5 -1 5 C-0.67 3.35 -0.34 1.7 0 0 Z " fill="#46CEE6" transform="translate(261,352)"/>
<path d="M0 0 C2.97 0 5.94 0 9 0 C9.99 1.98 10.98 3.96 12 6 C7.96479403 4.41037341 3.98188718 2.71767682 0 1 C0 0.67 0 0.34 0 0 Z " fill="#44C9DA" transform="translate(187,274)"/>
<path d="M0 0 C0.66 0 1.32 0 2 0 C2 0.66 2 1.32 2 2 C2.66 2.33 3.32 2.66 4 3 C1.03 4.65 -1.94 6.3 -5 8 C-4.67 6.35 -4.34 4.7 -4 3 C-3.34 3 -2.68 3 -2 3 C-1.34 2.01 -0.68 1.02 0 0 Z " fill="#49E1F3" transform="translate(310,275)"/>
<path d="M0 0 C1.58467728 0.28427417 3.1677057 0.57774818 4.75 0.875 C6.07257813 1.11863281 6.07257813 1.11863281 7.421875 1.3671875 C9.86947744 1.96796264 11.80599857 2.77997117 14 4 C12.41705218 4.05437607 10.83355744 4.09296271 9.25 4.125 C8.36828125 4.14820313 7.4865625 4.17140625 6.578125 4.1953125 C3.8864142 3.99139502 2.30095026 3.36551721 0 2 C0 1.34 0 0.68 0 0 Z " fill="#66FAFC" transform="translate(302,254)"/>
<path d="M0 0 C0.66 0.66 1.32 1.32 2 2 C1.625 4.125 1.625 4.125 1 6 C0.34 6 -0.32 6 -1 6 C-2.62514468 7.45833358 -2.62514468 7.45833358 -4 9 C-4.99 8.67 -5.98 8.34 -7 8 C-4.69 5.36 -2.38 2.72 0 0 Z " fill="#48D6E4" transform="translate(217,230)"/>
<path d="M0 0 C0 1.32 0 2.64 0 4 C-4.455 4.495 -4.455 4.495 -9 5 C-7 1 -7 1 -5.0625 0.25 C-3 0 -3 0 0 0 Z " fill="#43E2F8" transform="translate(340,265)"/>
<path d="M0 0 C0.66 0.33 1.32 0.66 2 1 C0.6875 4.4375 0.6875 4.4375 -1 8 C-1.99 8.33 -2.98 8.66 -4 9 C-3.6875 5.625 -3.6875 5.625 -3 2 C-2.01 1.34 -1.02 0.68 0 0 Z " fill="#54F5FC" transform="translate(230,213)"/>
<path d="M0 0 C0.66 0 1.32 0 2 0 C1.33333333 4 0.66666667 8 0 12 C-0.66 12 -1.32 12 -2 12 C-2.28571429 3.42857143 -2.28571429 3.42857143 0 0 Z " fill="#56F5FB" transform="translate(246,187)"/>
<path d="M0 0 C0.99 0.33 1.98 0.66 3 1 C2.34 1 1.68 1 1 1 C1 1.99 1 2.98 1 4 C-2.82320557 5.42258812 -5.91281305 6.24042276 -10 6 C-9.360625 5.896875 -8.72125 5.79375 -8.0625 5.6875 C-7.381875 5.460625 -6.70125 5.23375 -6 5 C-5.67 4.01 -5.34 3.02 -5 2 C-3.35 2 -1.7 2 0 2 C0 1.34 0 0.68 0 0 Z " fill="#6BF6F9" transform="translate(199,253)"/>
<path d="M0 0 C-5.1814184 2.68666139 -9.06057157 4.27625249 -15 4 C-10.27844707 -0.02206361 -6.0476984 -0.14064415 0 0 Z " fill="#86FAFB" transform="translate(212,254)"/>
<path d="M0 0 C0.33 0.99 0.66 1.98 1 3 C0.01 3.33 -0.98 3.66 -2 4 C-2 4.99 -2 5.98 -2 7 C-3.32 7.33 -4.64 7.66 -6 8 C-6 8.66 -6 9.32 -6 10 C-6.99 9.67 -7.98 9.34 -9 9 C-6.03 6.03 -3.06 3.06 0 0 Z " fill="#5CFBFD" transform="translate(217,234)"/>
<path d="M0 0 C0.33 0 0.66 0 1 0 C1.33 3.63 1.66 7.26 2 11 C0.68 11 -0.64 11 -2 11 C-1.85957123 9.35369672 -1.71250671 7.70795821 -1.5625 6.0625 C-1.48128906 5.14597656 -1.40007812 4.22945312 -1.31640625 3.28515625 C-1 1 -1 1 0 0 Z " fill="#2BCBE6" transform="translate(254,141)"/>
<path d="M0 0 C4.455 0.99 4.455 0.99 9 2 C7.68 2.33 6.36 2.66 5 3 C5 3.66 5 4.32 5 5 C2.03 4.505 2.03 4.505 -1 4 C-0.67 2.68 -0.34 1.36 0 0 Z " fill="#49DBEE" transform="translate(322,253)"/>
<path d="M0 0 C1.46534385 3.80989402 0.55203911 6.3241179 -1 10 C-1.99 10.495 -1.99 10.495 -3 11 C-3 8.69 -3 6.38 -3 4 C-2.34 4 -1.68 4 -1 4 C-0.67 2.68 -0.34 1.36 0 0 Z " fill="#56EEFC" transform="translate(242,185)"/>
<path d="M0 0 C2.96865509 2.54456151 4.3619751 5.48994665 6 9 C5.34 9 4.68 9 4 9 C3.67 8.34 3.34 7.68 3 7 C2.01 7 1.02 7 0 7 C-1.125 2.25 -1.125 2.25 0 0 Z " fill="#4CD5E5" transform="translate(281,217)"/>
<path d="M0 0 C0.33 0 0.66 0 1 0 C1 1.65 1 3.3 1 5 C1.66 5 2.32 5 3 5 C3 5.66 3 6.32 3 7 C0.69 7.66 -1.62 8.32 -4 9 C-2.80100302 5.9168649 -1.52299523 2.93720508 0 0 Z " fill="#3CC3D7" transform="translate(231,206)"/>
<path d="M0 0 C4.62 0 9.24 0 14 0 C14.33 0.66 14.66 1.32 15 2 C14.18015625 1.98839844 13.3603125 1.97679687 12.515625 1.96484375 C11.43796875 1.95582031 10.3603125 1.94679688 9.25 1.9375 C8.18265625 1.92589844 7.1153125 1.91429687 6.015625 1.90234375 C3.46631499 1.98489913 1.42066409 2.25382442 -1 3 C-0.67 2.01 -0.34 1.02 0 0 Z " fill="#4DDFF7" transform="translate(163,263)"/>
<path d="M0 0 C0.66 0 1.32 0 2 0 C1.35499066 3.48305042 -0.04134776 6.06202164 -2 9 C-2.33 9 -2.66 9 -3 9 C-3.25532751 5.93606987 -3.21861333 4.36766788 -1.625 1.6875 C-0.820625 0.8521875 -0.820625 0.8521875 0 0 Z " fill="#9FFEFD" transform="translate(244,225)"/>
<path d="M0 0 C0.33 0 0.66 0 1 0 C1.25 5.625 1.25 5.625 -1 9 C-1.66 9 -2.32 9 -3 9 C-3 7.35 -3 5.7 -3 4 C-2.34 4 -1.68 4 -1 4 C-0.67 2.68 -0.34 1.36 0 0 Z " fill="#55F2FD" transform="translate(235,202)"/>
<path d="M0 0 C0.33 0 0.66 0 1 0 C1 2.64 1 5.28 1 8 C0.01 8.495 0.01 8.495 -1 9 C-2.25541557 5.23375329 -1.37061958 3.62811066 0 0 Z M-3 7 C-2.67 7 -2.34 7 -2 7 C-2 8.65 -2 10.3 -2 12 C-2.33 12 -2.66 12 -3 12 C-3 10.35 -3 8.7 -3 7 Z " fill="#54EBF3" transform="translate(247,340)"/>
<path d="M0 0 C2 2 2 2 2.1953125 4.1640625 C2.16050781 5.38222656 2.16050781 5.38222656 2.125 6.625 C2.10695312 7.44226563 2.08890625 8.25953125 2.0703125 9.1015625 C2.04710937 9.72804688 2.02390625 10.35453125 2 11 C2.66 11.33 3.32 11.66 4 12 C3.01 12 2.02 12 1 12 C0.63762737 10.37681021 0.28534843 8.7513642 -0.0625 7.125 C-0.25972656 6.22007812 -0.45695313 5.31515625 -0.66015625 4.3828125 C-1 2 -1 2 0 0 Z " fill="#80FEFD" transform="translate(236,292)"/>
<path d="M0 0 C0.91007812 0.00902344 1.82015625 0.01804687 2.7578125 0.02734375 C3.45648438 0.03894531 4.15515625 0.05054688 4.875 0.0625 C1.98871599 1.63804035 -0.65842384 2.52526373 -3.875 3.1875 C-5.07382812 3.43886719 -5.07382812 3.43886719 -6.296875 3.6953125 C-6.90015625 3.81648438 -7.5034375 3.93765625 -8.125 4.0625 C-7.795 3.0725 -7.465 2.0825 -7.125 1.0625 C-4.60024538 -0.19987731 -2.81299534 -0.03606404 0 0 Z " fill="#38C5E4" transform="translate(334.125,268.9375)"/>
<path d="M0 0 C1.6415049 3.2830098 0.51888624 6.42545033 0 10 C-1.32 9.67 -2.64 9.34 -4 9 C-2.80100302 5.9168649 -1.52299523 2.93720508 0 0 Z " fill="#44D5E6" transform="translate(226,216)"/>
<path d="M0 0 C1.32 0 2.64 0 4 0 C3.34 2.97 2.68 5.94 2 9 C1.67 9 1.34 9 1 9 C0.855625 8.21625 0.71125 7.4325 0.5625 6.625 C0.12201075 4.03578982 0.12201075 4.03578982 -1 2 C-0.67 1.34 -0.34 0.68 0 0 Z " fill="#4DCFDB" transform="translate(263,333)"/>
<path d="M0 0 C0.66 0.66 1.32 1.32 2 2 C1.625 5.125 1.625 5.125 1 8 C0.01 8.33 -0.98 8.66 -2 9 C-1.125 1.125 -1.125 1.125 0 0 Z " fill="#43C6DD" transform="translate(248,160)"/>
<path d="M0 0 C2.64 0 5.28 0 8 0 C8 0.99 8 1.98 8 3 C6.02 3.33 4.04 3.66 2 4 C2.66 3.34 3.32 2.68 4 2 C2.68 2 1.36 2 0 2 C0 1.34 0 0.68 0 0 Z " fill="#4DD7FB" transform="translate(354,260)"/>
<path d="M0 0 C2.31 0.33 4.62 0.66 7 1 C7.33 1.99 7.66 2.98 8 4 C5.69 4.33 3.38 4.66 1 5 C1.99 4.67 2.98 4.34 4 4 C4 3.01 4 2.02 4 1 C2.68 0.67 1.36 0.34 0 0 Z " fill="#3DAAD8" transform="translate(358,259)"/>
<path d="M0 0 C0.99 0.33 1.98 0.66 3 1 C4.1875 4.0625 4.1875 4.0625 5 7 C2.525 6.01 2.525 6.01 0 5 C0 4.34 0 3.68 0 3 C-0.66 2.67 -1.32 2.34 -2 2 C-1.34 2 -0.68 2 0 2 C0 1.34 0 0.68 0 0 Z " fill="#47D0E4" transform="translate(276,210)"/>
<path d="M0 0 C1.1875 1.6875 1.1875 1.6875 2 4 C0.625 6.75 0.625 6.75 -1 9 C-2.0326802 6.21176345 -2.04509293 5.1322726 -1.0625 2.25 C-0.711875 1.5075 -0.36125 0.765 0 0 Z " fill="#76FDFD" transform="translate(254,180)"/>
<path d="M0 0 C1.98 0.495 1.98 0.495 4 1 C4 1.66 4 2.32 4 3 C3.34 3 2.68 3 2 3 C1.67 4.32 1.34 5.64 1 7 C-0.0625 5.1875 -0.0625 5.1875 -1 3 C-0.67 2.01 -0.34 1.02 0 0 Z " fill="#44DCEF" transform="translate(251,375)"/>
<path d="M0 0 C1.37432457 3.81756824 0.67975039 7.07255329 0 11 C-0.33 11 -0.66 11 -1 11 C-1 9.02 -1 7.04 -1 5 C-1.66 5 -2.32 5 -3 5 C-3 4.01 -3 3.02 -3 2 C-2.34 2 -1.68 2 -1 2 C-0.67 1.34 -0.34 0.68 0 0 Z " fill="#32A4C1" transform="translate(258,368)"/>
<path d="M0 0 C0.66 0.33 1.32 0.66 2 1 C1.67 2.32 1.34 3.64 1 5 C-0.98 5.33 -2.96 5.66 -5 6 C-3.35 4.02 -1.7 2.04 0 0 Z " fill="#5EFAFD" transform="translate(205,243)"/>
<path d="M0 0 C0.99 0.33 1.98 0.66 3 1 C1.35 2.98 -0.3 4.96 -2 7 C-2.66 5.68 -3.32 4.36 -4 3 C-2.1875 1.4375 -2.1875 1.4375 0 0 Z " fill="#52E8F4" transform="translate(209,239)"/>
<path d="M0 0 C2 2 2 2 2.125 4.625 C2.08375 5.40875 2.0425 6.1925 2 7 C1.01 7.33 0.02 7.66 -1 8 C-0.67 5.36 -0.34 2.72 0 0 Z " fill="#3DE0F2" transform="translate(248,168)"/>
<path d="M0 0 C1.10844919 3.32534757 0.84454356 5.62182575 0 9 C-0.33 9 -0.66 9 -1 9 C-1 7.35 -1 5.7 -1 4 C-1.99 4 -2.98 4 -4 4 C-4 3.34 -4 2.68 -4 2 C-2.68 2 -1.36 2 0 2 C0 1.34 0 0.68 0 0 Z " fill="#2FA6C7" transform="translate(256,382)"/>
<path d="M0 0 C0 0.99 0 1.98 0 3 C-0.66 3 -1.32 3 -2 3 C-2.33 3.66 -2.66 4.32 -3 5 C-3.99 5.495 -3.99 5.495 -5 6 C-4.625 3.5625 -4.625 3.5625 -4 1 C-2 0 -2 0 0 0 Z " fill="#4FE4EF" transform="translate(250,350)"/>
<path d="M0 0 C0.33 0 0.66 0 1 0 C1.1953125 6.0546875 1.1953125 6.0546875 1 8 C0.34 8.66 -0.32 9.32 -1 10 C-1.33 8.02 -1.66 6.04 -2 4 C-1.34 4 -0.68 4 0 4 C0 2.68 0 1.36 0 0 Z " fill="#62E7EC" transform="translate(242,330)"/>
<path d="M0 0 C3.63 0.33 7.26 0.66 11 1 C8 3 8 3 4 3 C4 2.34 4 1.68 4 1 C2.68 0.67 1.36 0.34 0 0 Z " fill="#5CF3FA" transform="translate(184,265)"/>
<path d="M0 0 C0.66 0 1.32 0 2 0 C2 2.31 2 4.62 2 7 C0.68 6.67 -0.64 6.34 -2 6 C-1.34 4.02 -0.68 2.04 0 0 Z " fill="#56F3FC" transform="translate(253,165)"/>
</svg>
